<svg width="24" height="24" viewBox="0 0 24 24" fill="none" xmlns="http://www.w3.org/2000/svg">
<path d="M1 12C1 12 5 4 12 4C19 4 23 12 23 12C23 12 19 20 12 20C5 20 1 12 1 12Z" fill="url(#paint0_linear)" stroke="url(#paint1_linear)" stroke-linecap="round" stroke-linejoin="round"/>
<path d="M14.5 12C14.5 13.3807 13.3807 14.5 12 14.5C10.6193 14.5 9.5 13.3807 9.5 12C9.5 10.6193 10.6193 9.5 12 9.5C13.3807 9.5 14.5 10.6193 14.5 12Z" stroke="#261D4B"/>
<defs>
<linearGradient id="paint0_linear" x1="23" y1="10.9864" x2="0.999999" y2="10.9864" gradientUnits="userSpaceOnUse">
<stop stop-color="#CF4942"/>
<stop offset="1" stop-color="#DE2264"/>
</linearGradient>
<linearGradient id="paint1_linear" x1="23" y1="10.9864" x2="0.999999" y2="10.9864" gradientUnits="userSpaceOnUse">
<stop stop-color="#CF4942"/>
<stop offset="1" stop-color="#DE2264"/>
</linearGradient>
</defs>
</svg>
