<?xml version="1.0" encoding="utf-8"?>
<!-- Generator: Adobe Illustrator 22.0.0, SVG Export Plug-In . SVG Version: 6.00 Build 0)  -->
<svg version="1.1" id="Ñëîé_1" xmlns="http://www.w3.org/2000/svg" xmlns:xlink="http://www.w3.org/1999/xlink" x="0px" y="0px"
	 viewBox="0 0 128.1 23.3" style="enable-background:new 0 0 128.1 23.3;" xml:space="preserve">
<style type="text/css">
	.st0{fill:#1B1B1B;}
	.st1{fill:#F53743;}
</style>
<g>
	<g>
		<path class="st0" d="M43.1,4.6V19h-2.4v-6.3h-6.2V19h-2.4V4.6h2.4v5.9h6.2V4.6H43.1z"/>
		<path class="st0" d="M55.2,8.7l-4,10.7c-1,2.6-2.7,3.9-5,3.8v-2.1c1.4,0.1,2.2-0.7,2.8-2l0.1-0.2L44.7,8.7h2.4l3.1,7.5l2.6-7.5
			H55.2z"/>
		<path class="st0" d="M67.6,13.8c0,3.1-2.3,5.4-5.1,5.4c-1.6,0-2.8-0.7-3.6-1.7v5.6h-2.2V8.7h2.2v1.5c0.8-1.1,2-1.8,3.6-1.8
			C65.3,8.4,67.6,10.8,67.6,13.8z M65.4,13.8c0-1.9-1.4-3.3-3.3-3.3c-1.9,0-3.3,1.4-3.3,3.3s1.4,3.3,3.3,3.3
			C64,17.2,65.4,15.8,65.4,13.8z"/>
		<path class="st0" d="M74.7,17.2c1.2,0,2.2-0.6,2.7-1.3l1.8,1.1c-0.9,1.4-2.5,2.3-4.5,2.3c-3.4,0-5.6-2.3-5.6-5.4
			c0-3.1,2.2-5.4,5.5-5.4c3.1,0,5.2,2.5,5.2,5.5c0,0.3,0,0.6-0.1,0.9h-8.2C71.7,16.4,73,17.2,74.7,17.2z M77.4,13
			c-0.3-1.8-1.6-2.5-3-2.5c-1.7,0-2.8,1-3.1,2.5H77.4z"/>
		<path class="st0" d="M87.1,8.5v2.4c-1.5-0.1-3.2,0.6-3.2,2.9V19h-2.2V8.7h2.2v1.7C84.5,9,85.8,8.5,87.1,8.5z"/>
		<path class="st0" d="M88.7,3.9H91V19h-2.2V3.9z"/>
		<path class="st0" d="M93,13.8c0-3.1,2.4-5.4,5.5-5.4c3,0,5.5,2.4,5.5,5.4c0,3.1-2.4,5.4-5.5,5.4C95.4,19.3,93,16.9,93,13.8z
			 M101.6,13.8c0-1.9-1.4-3.3-3.2-3.3c-1.8,0-3.2,1.4-3.2,3.3s1.4,3.3,3.2,3.3C100.2,17.1,101.6,15.7,101.6,13.8z"/>
		<path class="st0" d="M105.3,13.8c0-3.1,2.4-5.4,5.5-5.4c3,0,5.5,2.4,5.5,5.4c0,3.1-2.4,5.4-5.5,5.4
			C107.8,19.3,105.3,16.9,105.3,13.8z M114,13.8c0-1.9-1.4-3.3-3.2-3.3c-1.8,0-3.2,1.4-3.2,3.3s1.4,3.3,3.2,3.3
			C112.6,17.1,114,15.7,114,13.8z"/>
		<path class="st0" d="M121.2,10.8v5c0,1.3,0.9,1.3,2.6,1.2v2c-3.4,0.4-4.8-0.5-4.8-3.2v-5h-1.9V8.7h1.9V6.5l2.2-0.7v2.9h2.6v2.2
			L121.2,10.8L121.2,10.8z"/>
	</g>
</g>
<g>
	<path class="st1" d="M16.4,10.9"/>
	<path class="st1" d="M21.7,12.2c-1.8,0-3.3,1.5-3.3,3.3c0,1.8,1.5,3.3,3.3,3.3c1.8,0,3.3-1.5,3.3-3.3C25,13.7,23.5,12.2,21.7,12.2z
		"/>
	<path class="st1" d="M17.4,7.4L17.4,7.4L17.4,7.4z"/>
	<path class="st1" d="M20.4,8.2c-0.1-0.6-0.5-1.2-1-1.6c-1.1-0.8-2.7-0.5-3.5,0.6l-3.4,4.9l0,0c-0.3,0.4-0.8,0.5-1.2,0.2l0,0
		c-0.4-0.3-0.5-0.8-0.2-1.2l4.9-7c0.4-0.6,0.5-1.2,0.4-1.9c-0.1-0.6-0.5-1.2-1-1.6c-1.1-0.8-2.7-0.5-3.5,0.6L2.3,14.8
		c-0.4,0.6-0.5,1.2-0.4,1.9c0.1,0.6,0.5,1.2,1,1.6c1.1,0.8,2.7,0.5,3.5-0.6l2.7-3.8c0.3-0.4,0.8-0.5,1.2-0.2l0,0
		c0.4,0.3,0.5,0.8,0.2,1.2l0,0l0,0c-0.4,0.6-0.5,1.2-0.4,1.9c0.1,0.6,0.5,1.2,1,1.6c1.1,0.8,2.7,0.5,3.5-0.6l3.4-4.9l1.9-2.7
		C20.3,9.5,20.5,8.8,20.4,8.2z"/>
</g>
</svg>
