<?xml version="1.0" encoding="utf-8"?>
<!-- Generator: Adobe Illustrator 22.0.0, SVG Export Plug-In . SVG Version: 6.00 Build 0)  -->
<svg version="1.1" id="Capa_1" xmlns="http://www.w3.org/2000/svg" xmlns:xlink="http://www.w3.org/1999/xlink" x="0px" y="0px"
	 viewBox="187 141 276 278.7" style="enable-background:new 187 141 276 278.7;" xml:space="preserve">
<style type="text/css">
	.st0{fill:#D33A44;}
	.st1{fill:none;}
</style>
<g>
	<path class="st0" d="M381.9,244.3"/>
	<path class="st0" d="M412.7,252.2c-10.5,0-18.9,8.5-18.9,18.9c0,10.5,8.5,18.9,18.9,18.9c10.5,0,18.9-8.5,18.9-18.9
		S423.2,252.2,412.7,252.2z"/>
	<path class="st0" d="M387.8,224.2L387.8,224.2L387.8,224.2z"/>
	<path class="st0" d="M404.7,228.5c-0.6-3.7-2.7-7.1-6-9.4c-6.6-4.6-15.7-3-20.3,3.6l-20,28.6l0,0c-1.5,2.2-4.5,2.7-6.7,1.2l0,0
		c-2.2-1.6-2.7-4.6-1.2-6.8l28.3-40.8c2.3-3.3,3.1-7.2,2.4-10.9c-0.6-3.7-2.7-7.1-6-9.4c-6.6-4.6-15.7-3-20.3,3.6l-55.1,79
		c-2.3,3.3-3.1,7.2-2.4,10.9c0.7,3.7,2.7,7.1,6,9.4c6.6,4.6,15.7,3,20.3-3.6l15.7-22.3c1.5-2.2,4.6-2.7,6.7-1.2l0,0
		c2.2,1.5,2.7,4.5,1.2,6.7l0,0l0,0c-2.3,3.3-3.1,7.2-2.4,10.9c0.7,3.7,2.7,7.1,6,9.4c6.6,4.6,15.7,3,20.3-3.6l20-28.6l11.1-15.9
		C404.6,236.1,405.4,232.1,404.7,228.5z"/>
</g>
<g>
	<polygon class="st1" points="433.8,141 430.9,141 432.9,142.4 	"/>
	<polygon class="st1" points="452,158.9 459,152.5 461.7,155.4 454.7,161.8 457.1,164.4 463,159 463,152.1 461.4,150.3 463,148.8 
		463,144.1 449.7,156.3 	"/>
	<path class="st1" d="M255.7,243.3c0,58.9,47.8,106.7,106.7,106.7c46.4,0,85.9-29.6,100.6-71v-71.3c-11.3-32-37.5-56.9-70.2-66.6
		H332C287.9,154.1,255.7,194.9,255.7,243.3z"/>
	<polygon class="st1" points="462.8,172 463,171.8 463,167.5 460.7,169.2 	"/>
	<path class="st1" d="M288.3,145.3c1.6-1.2,2.4-2.7,2.3-4.3h-3.5c0.2,0.7-0.1,1.3-0.7,1.8c-0.9,0.7-1.8,0.6-2.8-0.7l-0.9-1.1h-4.4
		l2.3,3.1C282.9,146.9,285.6,147.4,288.3,145.3z"/>
	<polygon class="st1" points="443.9,335.7 446.1,337.9 450.2,334 463,347.3 463,342.3 450.6,329.3 	"/>
	<polygon class="st1" points="282.8,149.3 280.7,146.9 276.5,150.8 267.4,141 262.7,141 276,155.5 	"/>
	<path class="st1" d="M459.3,328.9l-2.6-2.3c-1.4-1.2-1.7-1.3-2.3-1.5l-2.3,2.7c0.9,0.3,1.5,0.8,2.3,1.5l2.6,2.2
		c1.8,1.5,3.4,2.2,5.1,1.3c-0.4,1.3,0,2.5,0.9,3.6v-7.5l0,0C461.9,330.2,460.9,330.2,459.3,328.9z"/>
	<polygon class="st1" points="463,319.3 463,314.3 460.6,317.6 	"/>
	<polygon class="st1" points="456.9,322.2 463,327.4 463,322.8 459.2,319.6 	"/>
	<path class="st1" d="M295.7,372.6c3,1.6,5.6,0.6,7.3-2.5l5.3-10.2c1.6-3.1,0.9-5.8-2.1-7.4c-3-1.6-5.6-0.6-7.3,2.5l-5.3,10.2
		C291.9,368.4,292.6,371,295.7,372.6z M296.5,367l5.5-10.6c0.7-1.4,1.6-1.6,2.6-1.1c1,0.5,1.3,1.4,0.6,2.8l-5.5,10.6
		c-0.7,1.4-1.6,1.6-2.6,1.1C296.2,369.3,295.8,368.4,296.5,367z"/>
	<path class="st1" d="M365,388.5l5.1-0.1l-0.4-22.1l-3.5,0.1l0.2,8.3l-1.6,0c-3.5,0.1-5.1,2-5.1,5.6l0.1,2.9
		C359.7,386.7,361.5,388.6,365,388.5z M364.7,377.8l1.6,0l0.2,7.5l-1.6,0c-1.1,0-1.7-0.5-1.8-2.1l-0.1-3.3
		C363,378.4,363.6,377.9,364.7,377.8z"/>
	<polygon class="st1" points="289.6,365.4 286.6,363.4 296.9,347.5 294,345.6 283.7,361.6 280.6,359.6 278.9,362.2 287.9,368.1 	"/>
	<polygon class="st1" points="393.5,385.2 391.4,375.9 395.2,375 397.4,384.3 400.8,383.5 395.8,361.9 392.4,362.7 394.5,372 
		390.7,372.9 388.5,363.6 385.1,364.4 390.1,386 	"/>
	<polygon class="st1" points="421.3,372.7 422.8,375.5 432.4,370.7 431,367.9 427.7,369.5 419.2,352.5 416.1,354.1 424.6,371.1 	"/>
	<polygon class="st1" points="249.7,193.7 251.2,190.5 244.5,187.5 232.9,177.3 231.5,180.3 239.6,186.9 229.3,185.2 227.8,188.5 
		243.1,190.6 	"/>
	<polygon class="st1" points="245,206.3 236,203.3 237.2,199.6 246.2,202.6 247.3,199.2 226.3,192.2 225.2,195.6 234.2,198.6 
		233,202.3 223.9,199.3 222.8,202.6 243.9,209.6 	"/>
	<polygon class="st1" points="240,321.7 241.9,324.4 251.7,320.8 244.9,328.7 247,331.7 256.6,319.6 262.6,315.4 260.6,312.5 
		254.6,316.7 	"/>
	<polygon class="st1" points="265.7,167 263.2,165.1 259.6,170 254.4,166.1 257.2,162.3 254.6,160.4 251.8,164.3 246.8,160.6 
		250.4,155.8 247.8,153.9 242.2,161.6 260.1,174.6 	"/>
	<polygon class="st1" points="323.4,383.2 326.8,384.2 332.8,362.9 323.9,360.3 323.1,363.4 328.6,365 	"/>
	<polygon class="st1" points="377.3,387.8 378.7,377.5 382.6,387.2 386.2,386.7 380,372.5 379.1,365.3 375.7,365.7 376.6,373 
		374,388.2 	"/>
	<path class="st1" d="M335.6,374.5c-1.7,0.4-2.6,1.8-3,4l-0.3,1.7c-0.6,3.4,0.6,5.3,4.2,5.9l5.2,0.9l3.9-21.8l-3.4-0.6l-1.6,8.9
		l-1.2-0.2c-1.6-0.3-2.1-1.2-1.7-3.2l0.6-3.4c0.3-1.8,0.3-2.1,0.2-2.7l-3.5-0.6c0.2,0.9,0.1,1.7-0.1,2.7l-0.6,3.4
		C333.8,371.8,334.1,373.5,335.6,374.5z M335.8,380.6l0.4-2.1c0.3-1.7,1.2-2.2,2.5-1.9l1.3,0.2l-1.2,6.7l-1.7-0.3
		C335.9,382.9,335.5,382.1,335.8,380.6z"/>
	<path class="st1" d="M309.4,378.8c3.2,1.2,5.7,0,7-3.3l4.2-10.7c1.3-3.3,0.3-5.9-2.9-7.1c-3.2-1.2-5.7,0-6.9,3.3l-4.2,10.7
		C305.3,375,306.3,377.6,309.4,378.8z M309.7,373.2l4.4-11.1c0.6-1.5,1.4-1.8,2.5-1.4c1,0.4,1.5,1.2,0.9,2.7l-4.4,11.1
		c-0.6,1.5-1.4,1.8-2.5,1.4C309.6,375.5,309.1,374.7,309.7,373.2z"/>
	<path class="st1" d="M432.8,364.4c1.9,3,4.6,3.7,7.4,1.9c2.9-1.8,3.4-4.5,1.5-7.5l-6.2-9.7c-1.9-3-4.6-3.7-7.4-1.9
		c-2.9,1.8-3.4,4.5-1.5,7.5L432.8,364.4z M429.8,349.8c0.9-0.6,1.8-0.5,2.7,0.9l6.4,10.1c0.8,1.3,0.6,2.2-0.4,2.8
		c-0.9,0.6-1.8,0.5-2.7-0.9l-6.4-10.1C428.6,351.3,428.8,350.4,429.8,349.8z"/>
	<path class="st1" d="M255.6,182.1l-7.2-4.2l0.8-1.4c1.8-3,1-5.5-2.1-7.2l-2.5-1.5c-3.1-1.8-5.6-1.3-7.3,1.7l-2.6,4.4l19.1,11.2
		L255.6,182.1z M246.5,174.8l-0.8,1.4l-6.5-3.8l0.8-1.4c0.6-1,1.3-1.2,2.7-0.4l2.9,1.7C247,173.1,247.1,173.9,246.5,174.8z"/>
	<path class="st1" d="M224.1,264.9l11.4-1.3c3.5-0.4,5.3-2.5,4.9-5.9c-0.4-3.4-2.6-5-6.1-4.6l-11.4,1.3c-3.5,0.4-5.3,2.5-4.9,5.9
		C218.3,263.6,220.5,265.3,224.1,264.9z M221.1,259.9c-0.1-1.1,0.4-1.9,2-2l11.9-1.4c1.6-0.2,2.2,0.4,2.4,1.5c0.1,1.1-0.4,1.9-2,2
		l-11.9,1.4C221.9,261.6,221.2,261,221.1,259.9z"/>
	<polygon class="st1" points="241,264.4 237.9,265.1 239.2,270.7 220.6,274.7 221.3,278.1 243,273.4 	"/>
	<path class="st1" d="M222.6,250.5l11.5-0.2c3.5-0.1,5.5-2,5.5-5.4c-0.1-3.4-2.1-5.2-5.7-5.2l-11.5,0.2c-3.5,0.1-5.5,2-5.5,5.4
		C217,248.7,219.1,250.5,222.6,250.5z M222.3,243.4l12-0.2c1.6,0,2.2,0.7,2.2,1.8c0,1.1-0.6,1.8-2.2,1.8l-12,0.2
		c-1.6,0-2.2-0.7-2.2-1.8S220.7,243.4,222.3,243.4z"/>
	<polygon class="st1" points="251.9,337.5 259,331.2 261.6,334.2 254.5,340.5 256.8,343.1 273.4,328.5 271.1,325.9 264,332.1 
		261.4,329.2 268.5,322.9 266.2,320.2 249.5,334.8 	"/>
	<polygon class="st1" points="220.7,232.9 239.6,234.5 239.9,231 221,229.4 221.3,225.8 218.2,225.5 217.3,236.3 220.4,236.5 	"/>
	<path class="st1" d="M444.9,356.4c2.2,2.8,4.9,3.2,7.6,1.1c2.7-2.1,2.9-4.9,0.7-7.6l-7.1-9c-2.2-2.8-4.9-3.2-7.6-1.1
		c-2.7,2.1-2.9,4.9-0.7,7.6L444.9,356.4z M440.4,342.2c0.9-0.7,1.8-0.6,2.8,0.6l7.4,9.4c1,1.2,0.8,2.1-0.1,2.8
		c-0.9,0.7-1.8,0.6-2.8-0.6l-7.4-9.4C439.4,343.8,439.6,342.9,440.4,342.2z"/>
	<path class="st1" d="M248.3,308.5l-0.8-1.4c-1.7-3-4.2-3.6-7.3-1.8l-2.5,1.4c-3.1,1.7-3.9,4.2-2.2,7.2l2.5,4.5l19.3-10.8l-1.7-3
		L248.3,308.5z M239,313.8l-0.8-1.4c-0.5-1-0.4-1.7,1-2.5l2.9-1.6c1.4-0.8,2.1-0.5,2.7,0.5l0.8,1.4L239,313.8z"/>
	<polygon class="st1" points="357.4,366.4 348,365.6 347.7,368.8 353.7,369.2 353.2,375.7 348.5,375.3 348.2,378.5 353,378.9 
		352.5,385 346.5,384.6 346.3,387.7 355.7,388.4 	"/>
	<path class="st1" d="M269.6,162.5l-6.7-6l0.8-0.9c1.1-1.2,2.1-1.2,3.6,0.2l2.6,2.3c1.3,1.2,1.7,1.3,2.2,1.6l2.4-2.6
		c-0.8-0.3-1.5-0.8-2.3-1.5l-2.5-2.3c-1.7-1.5-3.4-2.2-5.1-1.4c0.5-1.6-0.1-3.2-1.8-4.7l-1.3-1.2c-2.5-2.3-4.8-2.2-7.2,0.5l-3.5,3.9
		l16.5,14.8L269.6,162.5z M261.4,153.3l-0.9,1l-5.1-4.5l1.1-1.3c0.8-0.9,1.7-0.9,2.9,0.2l1.6,1.5
		C262.3,151.4,262.2,152.4,261.4,153.3z"/>
	<polygon class="st1" points="247.6,288.1 244.7,289.4 247.2,294.9 241.2,297.5 239.3,293.1 236.4,294.4 238.3,298.7 232.7,301.2 
		230.2,295.7 227.4,297 231.2,305.7 251.4,296.8 	"/>
	<path class="st1" d="M245.7,282.5l-8.6,2.8l-0.4-1.1c-0.5-1.5,0-2.4,2-3l3.3-1.1c1.7-0.6,2-0.8,2.5-1.1l-1.1-3.4
		c-0.7,0.6-1.4,0.9-2.4,1.2l-3.3,1c-2.2,0.7-3.6,1.8-3.8,3.6c-1.2-1.3-2.8-1.5-5-0.8l-1.7,0.5c-3.3,1-4.4,3-3.3,6.5l1.6,5l21.1-6.8
		L245.7,282.5z M227.6,288.3l-0.5-1.6c-0.4-1.2,0.1-1.9,1.6-2.4l2.1-0.7c1.7-0.5,2.5,0,2.9,1.3l0.4,1.3L227.6,288.3z"/>
	<path class="st0" d="M364.9,385.3l1.6,0l-0.2-7.5l-1.6,0c-1.1,0-1.7,0.5-1.7,2.1l0.1,3.3C363.2,384.9,363.8,385.4,364.9,385.3z"/>
	<path class="st0" d="M337.1,383.1l1.7,0.3l1.2-6.7l-1.3-0.2c-1.3-0.2-2.2,0.2-2.5,1.9l-0.4,2.1
		C335.5,382.1,335.9,382.9,337.1,383.1z"/>
	<path class="st0" d="M286.4,142.8c0.6-0.5,0.9-1,0.7-1.8h-4.3l0.9,1.1C284.6,143.4,285.6,143.4,286.4,142.8z"/>
	<path class="st0" d="M259.4,148.8c-1.2-1.1-2.1-1.1-2.9-0.2l-1.1,1.3l5.1,4.5l0.9-1c0.9-1,1-1.9-0.4-3.1L259.4,148.8z"/>
	<path class="st0" d="M230.8,283.7l-2.1,0.7c-1.5,0.5-2,1.2-1.6,2.4l0.5,1.6l6.5-2.1l-0.4-1.3C233.3,283.7,232.5,283.1,230.8,283.7z
		"/>
	<path class="st0" d="M435.8,362.7c0.8,1.3,1.8,1.5,2.7,0.9c0.9-0.6,1.2-1.5,0.4-2.8l-6.4-10.1c-0.8-1.3-1.8-1.5-2.7-0.9
		c-0.9,0.6-1.2,1.5-0.4,2.8L435.8,362.7z"/>
	<path class="st0" d="M297.1,369.8c1,0.5,1.9,0.3,2.6-1.1l5.5-10.6c0.7-1.4,0.4-2.3-0.6-2.8c-1-0.5-1.9-0.3-2.6,1.1l-5.5,10.6
		C295.8,368.4,296.2,369.3,297.1,369.8z"/>
	<path class="st0" d="M223.4,261.4l11.9-1.4c1.6-0.2,2.1-0.9,2-2c-0.1-1.1-0.8-1.7-2.4-1.5l-11.9,1.4c-1.6,0.2-2.1,0.9-2,2
		C221.2,261,221.9,261.6,223.4,261.4z"/>
	<path class="st0" d="M242.1,308.2l-2.9,1.6c-1.4,0.8-1.5,1.5-1,2.5l0.8,1.4l6.5-3.7l-0.8-1.4C244.2,307.7,243.5,307.4,242.1,308.2z
		"/>
	<path class="st0" d="M245.6,172.3l-2.9-1.7c-1.4-0.8-2.1-0.5-2.7,0.4l-0.8,1.4l6.5,3.8l0.8-1.4C247.1,173.9,247,173.1,245.6,172.3z
		"/>
	<path class="st0" d="M310.6,375.9c1,0.4,1.9,0.1,2.5-1.4l4.4-11.1c0.6-1.5,0.1-2.3-0.9-2.7c-1-0.4-1.9-0.1-2.5,1.4l-4.4,11.1
		C309.1,374.7,309.6,375.5,310.6,375.9z"/>
	<path class="st0" d="M222.3,247l12-0.2c1.6,0,2.2-0.7,2.2-1.8c0-1.1-0.6-1.8-2.2-1.8l-12,0.2c-1.6,0-2.2,0.7-2.2,1.8
		S220.7,247,222.3,247z"/>
	<polygon class="st0" points="463,152.1 463,148.8 461.4,150.3 	"/>
	<path class="st0" d="M362.4,403.6c38.1,0,73.1-13.3,100.6-35.5v-20.8L450.2,334l-4.1,4l-2.2-2.3l6.6-6.4l12.4,13v-5.9
		c-0.9-1.2-1.3-2.4-0.9-3.6c-1.7,0.8-3.3,0.2-5.1-1.3l-2.6-2.2c-0.8-0.7-1.4-1.2-2.3-1.5l2.3-2.7c0.6,0.2,0.9,0.4,2.3,1.5l2.6,2.3
		c1.6,1.3,2.6,1.3,3.6,0.1l0,0v-1.5l-6.1-5.2l2.3-2.6l3.8,3.3v-3.5l-2.4-1.6l2.4-3.4v-35.3c-14.7,41.4-54.2,71-100.6,71
		c-58.9,0-106.7-47.8-106.7-106.7c0-48.4,32.2-89.2,76.3-102.3h-41.4c0.1,1.6-0.6,3.1-2.3,4.3c-2.7,2.1-5.4,1.6-7.6-1.3l-2.3-3.1
		h-11.1l9.1,9.8l4.2-3.9l2.1,2.3l-6.8,6.2L262.7,141H239c-23,27.8-36.9,63.4-36.9,102.3C202.1,331.8,273.9,403.6,362.4,403.6z
		 M217.9,260.3c-0.4-3.4,1.4-5.5,4.9-5.9l11.4-1.3c3.5-0.4,5.7,1.2,6.1,4.6c0.4,3.4-1.4,5.5-4.9,5.9l-11.4,1.3
		C220.5,265.3,218.3,263.6,217.9,260.3z M217,245.3c-0.1-3.4,1.9-5.3,5.5-5.4l11.5-0.2c3.5-0.1,5.6,1.8,5.7,5.2
		c0.1,3.4-1.9,5.3-5.5,5.4l-11.5,0.2C219.1,250.5,217,248.7,217,245.3z M220.6,274.7l18.6-4l-1.2-5.6l3.1-0.7l1.9,9l-21.7,4.7
		L220.6,274.7z M224.1,287.6c-1.1-3.4,0-5.4,3.3-6.5l1.7-0.5c2.2-0.7,3.8-0.5,5,0.8c0.2-1.9,1.6-2.9,3.8-3.6l3.3-1
		c1-0.3,1.8-0.6,2.4-1.2l1.1,3.4c-0.5,0.4-0.8,0.6-2.5,1.1l-3.3,1.1c-2,0.6-2.5,1.5-2,3l0.4,1.1l8.6-2.8l1.1,3.3l-21.1,6.8
		L224.1,287.6z M227.4,297l2.9-1.3l2.4,5.5l5.7-2.5l-1.9-4.4l2.9-1.3l1.9,4.4l5.9-2.6l-2.4-5.5l2.9-1.3l3.8,8.7l-20.3,8.9L227.4,297
		z M438.5,339.7c2.7-2.1,5.4-1.7,7.6,1.1l7.1,9c2.2,2.8,2,5.5-0.7,7.6c-2.7,2.1-5.4,1.7-7.6-1.1l-7.1-9
		C435.6,344.6,435.8,341.9,438.5,339.7z M428.1,347.1c2.9-1.8,5.5-1.1,7.4,1.9l6.2,9.7c1.9,3,1.4,5.7-1.5,7.5
		c-2.9,1.8-5.5,1.1-7.4-1.9l-6.2-9.7C424.7,351.7,425.2,348.9,428.1,347.1z M419.2,352.5l8.5,17l3.3-1.6l1.4,2.8l-9.6,4.8l-1.4-2.8
		l3.3-1.6l-8.5-17L419.2,352.5z M388.5,363.6l2.2,9.2l3.9-0.9l-2.1-9.2l3.4-0.8l5,21.6l-3.4,0.8l-2.1-9.2l-3.9,0.9l2.2,9.2l-3.5,0.8
		l-5-21.6L388.5,363.6z M375.7,365.7l3.5-0.4l0.9,7.3l6.2,14.2l-3.6,0.4l-3.9-9.7l-1.4,10.3l-3.3,0.4l2.6-15.2L375.7,365.7z
		 M364.7,374.7l1.6,0l-0.2-8.3l3.5-0.1l0.4,22.1l-5.1,0.1c-3.5,0.1-5.2-1.8-5.3-5.4l-0.1-2.9C359.5,376.7,361.2,374.7,364.7,374.7z
		 M346.5,384.6l6,0.5l0.5-6.2l-4.8-0.4l0.2-3.2l4.8,0.4l0.5-6.5l-6-0.5l0.2-3.2l9.5,0.7l-1.7,22.1l-9.5-0.7L346.5,384.6z
		 M334.2,369.5l0.6-3.4c0.2-1.1,0.3-1.8,0.1-2.7l3.5,0.6c0.1,0.6,0.1,1-0.2,2.7l-0.6,3.4c-0.4,2,0.2,2.9,1.7,3.2l1.2,0.2l1.6-8.9
		l3.4,0.6l-3.9,21.8l-5.2-0.9c-3.6-0.6-4.8-2.6-4.2-5.9l0.3-1.7c0.4-2.2,1.4-3.6,3-4C334.1,373.5,333.8,371.8,334.2,369.5z
		 M323.9,360.3l8.9,2.5l-6,21.3l-3.3-0.9l5.2-18.3l-5.5-1.6L323.9,360.3z M317.7,357.7c3.2,1.2,4.2,3.8,2.9,7.1l-4.2,10.7
		c-1.3,3.3-3.8,4.5-7,3.3c-3.2-1.2-4.2-3.8-2.9-7.1l4.2-10.7C312,357.7,314.5,356.5,317.7,357.7z M306.1,352.5
		c3,1.6,3.8,4.2,2.1,7.4l-5.3,10.2c-1.6,3.1-4.2,4.1-7.3,2.5c-3-1.6-3.8-4.2-2.1-7.4l5.3-10.2C300.5,351.8,303.1,350.9,306.1,352.5z
		 M280.6,359.6l3.1,2l10.3-15.9l2.9,1.9l-10.3,15.9l3.1,2l-1.7,2.7l-9-5.9L280.6,359.6z M268.5,322.9l-7.1,6.3l2.6,3l7.1-6.3
		l2.3,2.6l-16.7,14.6l-2.3-2.6l7.1-6.3l-2.6-3l-7.1,6.3l-2.3-2.7l16.7-14.6L268.5,322.9z M262.6,315.4l-6,4.2l-9.6,12.1l-2.1-3
		l6.7-8l-9.8,3.6l-1.9-2.7l14.6-4.9l6-4.2L262.6,315.4z M257.3,307.5L238,318.3l-2.5-4.5c-1.7-3-0.9-5.5,2.2-7.2l2.5-1.4
		c3.1-1.7,5.6-1.2,7.3,1.8l0.8,1.4l7.3-4.1L257.3,307.5z M254.2,146.4c2.4-2.7,4.7-2.7,7.2-0.5l1.3,1.2c1.7,1.5,2.3,3.1,1.8,4.7
		c1.7-0.8,3.3-0.1,5.1,1.4l2.5,2.3c0.8,0.7,1.4,1.2,2.3,1.5l-2.4,2.6c-0.6-0.2-0.9-0.4-2.2-1.6l-2.6-2.3c-1.5-1.4-2.6-1.4-3.6-0.2
		l-0.8,0.9l6.7,6l-2.3,2.6l-16.5-14.8L254.2,146.4z M247.8,153.9l2.6,1.9l-3.5,4.9l5,3.6l2.8-3.9l2.6,1.9l-2.8,3.9l5.2,3.8l3.5-4.9
		l2.6,1.9l-5.6,7.7l-17.9-13L247.8,153.9z M237.3,169.4c1.8-3,4.3-3.5,7.3-1.7l2.5,1.5c3.1,1.8,3.9,4.2,2.1,7.2l-0.8,1.4l7.2,4.2
		l-1.8,3l-19.1-11.2L237.3,169.4z M229.3,185.2l10.3,1.8l-8.1-6.6l1.4-3l11.6,10.2l6.7,3.1l-1.4,3.2l-6.7-3.1l-15.3-2.2L229.3,185.2
		z M223.9,199.3l9,3l1.2-3.8l-9-3l1.1-3.4l21,7l-1.1,3.4l-9-3l-1.2,3.8l9,3l-1.1,3.3l-21-7L223.9,199.3z M218.2,225.5l3.2,0.3
		l-0.3,3.6l18.9,1.6l-0.3,3.5l-18.9-1.6l-0.3,3.6l-3.2-0.3L218.2,225.5z"/>
	<path class="st0" d="M463,207.6v-35.8l-0.2,0.2l-2.1-2.8l2.3-1.7V159l-5.9,5.4l-2.4-2.6l7-6.4l-2.7-2.9l-7,6.4l-2.3-2.6l13.3-12.2
		V141h-29.2l-0.9,1.4l-2-1.4h-38.1C425.5,150.7,451.7,175.7,463,207.6z"/>
	<path class="st0" d="M447.8,354.5c1,1.2,1.9,1.3,2.8,0.6c0.9-0.7,1-1.6,0.1-2.8l-7.4-9.4c-1-1.2-1.9-1.3-2.8-0.6
		c-0.9,0.7-1,1.6-0.1,2.8L447.8,354.5z"/>
</g>
</svg>
