<svg width="224" height="66" viewBox="0 0 224 66" fill="none" xmlns="http://www.w3.org/2000/svg">
<g clip-path="url(#clip0)">
<path d="M215.635 0H8.29365C3.71319 0 0 3.69365 0 8.25V57.75C0 62.3063 3.71319 66 8.29365 66H215.635C220.215 66 223.929 62.3063 223.929 57.75V8.25C223.929 3.69365 220.215 0 215.635 0Z" fill="black"/>
<path d="M53.2666 31.8665C53.2208 26.7995 57.4374 24.3344 57.6302 24.2196C55.2422 20.7562 51.5408 20.283 50.24 20.2453C47.1313 19.9198 44.1158 22.0957 42.5322 22.0957C40.917 22.0957 38.4783 20.2767 35.8501 20.3302C32.4679 20.382 29.3038 22.3299 27.5685 25.3547C23.9872 31.5222 26.6582 40.5855 30.0893 45.5707C31.8057 48.0122 33.8113 50.7383 36.4364 50.6424C39.0046 50.5371 39.964 49.0137 43.0632 49.0137C46.134 49.0137 47.0349 50.6424 49.7122 50.5811C52.4685 50.5371 54.2038 48.1286 55.8601 45.6651C57.8436 42.8667 58.6401 40.1107 58.6717 39.9692C58.6069 39.9472 53.3188 37.9396 53.2666 31.8665Z" fill="white"/>
<path d="M48.2092 16.9658C49.5905 15.2474 50.5356 12.9097 50.2732 10.5373C48.274 10.6254 45.7737 11.9129 44.3339 13.5935C43.0601 15.0745 41.9222 17.5019 42.2161 19.7846C44.4619 19.9512 46.7678 18.6574 48.2092 16.9658Z" fill="white"/>
<path d="M90.4336 50.2916H86.8444L84.8783 44.1461H78.0445L76.1716 50.2916H72.6773L79.4479 29.3697H83.6298L90.4336 50.2916ZM84.2857 41.5678L82.5077 36.1047C82.3196 35.5466 81.9672 34.2323 81.4472 32.1633H81.384C81.1769 33.0532 80.8435 34.3675 80.3851 36.1047L78.6387 41.5678H84.2857Z" fill="white"/>
<path d="M107.845 42.563C107.845 45.1287 107.148 47.1568 105.754 48.6456C104.506 49.9709 102.955 50.6327 101.104 50.6327C99.1067 50.6327 97.6717 49.919 96.7977 48.4915H96.7344V56.4386H93.3649V40.1718C93.3649 38.5588 93.3223 36.9033 93.2401 35.2054H96.2034L96.3915 37.5966H96.4547C97.5784 35.795 99.2837 34.8957 101.572 34.8957C103.361 34.8957 104.855 35.5985 106.05 37.0055C107.248 38.4141 107.845 40.2661 107.845 42.563ZM104.412 42.6856C104.412 41.2173 104.08 40.0067 103.413 39.054C102.685 38.0604 101.707 37.5636 100.48 37.5636C99.6488 37.5636 98.8933 37.8403 98.2185 38.3858C97.5421 38.9361 97.0995 39.6546 96.8925 40.5444C96.7882 40.9594 96.736 41.299 96.736 41.5663V44.0817C96.736 45.179 97.0742 46.105 97.7507 46.8612C98.4271 47.6174 99.3058 47.9947 100.387 47.9947C101.656 47.9947 102.644 47.5073 103.35 46.5358C104.058 45.5626 104.412 44.2798 104.412 42.6856Z" fill="white"/>
<path d="M125.289 42.563C125.289 45.1287 124.592 47.1568 123.196 48.6456C121.949 49.9709 120.399 50.6327 118.548 50.6327C116.55 50.6327 115.115 49.919 114.243 48.4915H114.18V56.4386H110.81V40.1718C110.81 38.5588 110.768 36.9033 110.685 35.2054H113.649L113.837 37.5966H113.9C115.022 35.795 116.728 34.8957 119.018 34.8957C120.805 34.8957 122.299 35.5985 123.497 37.0055C124.69 38.4141 125.289 40.2661 125.289 42.563ZM121.856 42.6856C121.856 41.2173 121.523 40.0067 120.856 39.054C120.127 38.0604 119.152 37.5636 117.924 37.5636C117.091 37.5636 116.337 37.8403 115.661 38.3858C114.984 38.9361 114.543 39.6546 114.336 40.5444C114.234 40.9594 114.18 41.299 114.18 41.5663V44.0817C114.18 45.179 114.518 46.105 115.191 46.8612C115.868 47.6158 116.746 47.9947 117.831 47.9947C119.1 47.9947 120.088 47.5073 120.794 46.5358C121.502 45.5626 121.856 44.2798 121.856 42.6856Z" fill="white"/>
<path d="M144.792 44.4245C144.792 46.2041 144.171 47.652 142.924 48.7698C141.553 49.9914 139.646 50.6014 137.194 50.6014C134.931 50.6014 133.117 50.1674 131.743 49.2981L132.524 46.5044C134.004 47.3942 135.627 47.8407 137.395 47.8407C138.664 47.8407 139.652 47.5546 140.362 46.9855C141.068 46.4163 141.421 45.6523 141.421 44.6996C141.421 43.8506 141.13 43.1353 140.547 42.5552C139.967 41.9751 138.998 41.4358 137.645 40.9375C133.962 39.5713 132.123 37.57 132.123 34.9382C132.123 33.2183 132.768 31.8081 134.059 30.7108C135.345 29.6118 137.062 29.0632 139.208 29.0632C141.122 29.0632 142.712 29.3949 143.981 30.0568L143.138 32.7891C141.953 32.1477 140.613 31.827 139.113 31.827C137.928 31.827 137.002 32.1178 136.338 32.6964C135.777 33.2136 135.495 33.844 135.495 34.5908C135.495 35.4177 135.816 36.1016 136.461 36.6393C137.022 37.1361 138.042 37.6737 139.521 38.2538C141.33 38.9786 142.66 39.826 143.515 40.7976C144.367 41.766 144.792 42.9781 144.792 44.4245Z" fill="white"/>
<path d="M155.932 37.7209H152.218V45.0454C152.218 46.9084 152.872 47.8391 154.184 47.8391C154.786 47.8391 155.286 47.7872 155.681 47.6835L155.774 50.2287C155.11 50.4756 154.236 50.5998 153.154 50.5998C151.823 50.5998 150.783 50.1957 150.032 49.3892C149.285 48.5812 148.909 47.226 148.909 45.3221V37.7177H146.696V35.2023H148.909V32.4401L152.218 31.4465V35.2023H155.932V37.7209Z" fill="white"/>
<path d="M172.69 42.6245C172.69 44.9434 172.023 46.8473 170.692 48.3361C169.296 49.8689 167.444 50.6329 165.135 50.6329C162.91 50.6329 161.138 49.8988 159.817 48.4304C158.496 46.962 157.835 45.1085 157.835 42.8745C157.835 40.5367 158.515 38.6219 159.878 37.1331C161.239 35.6427 163.076 34.8975 165.385 34.8975C167.61 34.8975 169.401 35.6317 170.752 37.1016C172.045 38.5275 172.69 40.3685 172.69 42.6245ZM169.194 42.733C169.194 41.3417 168.895 40.1484 168.29 39.1533C167.583 37.949 166.573 37.3484 165.265 37.3484C163.91 37.3484 162.881 37.9506 162.175 39.1533C161.57 40.15 161.271 41.3621 161.271 42.7959C161.271 44.1872 161.57 45.3805 162.175 46.374C162.903 47.5783 163.921 48.1789 165.235 48.1789C166.521 48.1789 167.531 47.5657 168.26 46.3426C168.881 45.3286 169.194 44.1228 169.194 42.733Z" fill="white"/>
<path d="M183.642 38.1532C183.308 38.0919 182.953 38.0604 182.58 38.0604C181.394 38.0604 180.478 38.5053 179.833 39.3967C179.272 40.1828 178.991 41.1764 178.991 42.3759V50.2916H175.623L175.654 39.9564C175.654 38.2176 175.612 36.6345 175.528 35.207H178.463L178.586 38.0934H178.679C179.035 37.1014 179.596 36.3028 180.364 35.7038C181.115 35.1646 181.925 34.8957 182.799 34.8957C183.111 34.8957 183.392 34.9177 183.642 34.957V38.1532Z" fill="white"/>
<path d="M198.711 42.0349C198.711 42.6354 198.672 43.1416 198.588 43.5551H188.48C188.519 45.0455 189.008 46.1853 189.946 46.9714C190.798 47.6741 191.9 48.0263 193.253 48.0263C194.749 48.0263 196.115 47.7889 197.343 47.3125L197.871 49.6393C196.436 50.2618 194.741 50.5715 192.786 50.5715C190.435 50.5715 188.589 49.8829 187.245 48.5073C185.905 47.1317 185.233 45.2845 185.233 42.9671C185.233 40.6923 185.858 38.7978 187.108 37.287C188.416 35.674 190.185 34.8675 192.41 34.8675C194.596 34.8675 196.251 35.674 197.374 37.287C198.264 38.5683 198.711 40.153 198.711 42.0349ZM195.498 41.1655C195.521 40.1719 195.301 39.3135 194.844 38.5888C194.261 37.6565 193.365 37.1911 192.159 37.1911C191.057 37.1911 190.161 37.6455 189.477 38.5573C188.916 39.2821 188.582 40.1515 188.48 41.1639H195.498V41.1655Z" fill="white"/>
<path d="M83.1719 16.4989C83.1719 18.3493 82.614 19.7422 81.4998 20.6776C80.4678 21.5407 79.0011 21.9731 77.1014 21.9731C76.1595 21.9731 75.3534 21.9322 74.6786 21.8504V11.7401C75.5589 11.5986 76.5072 11.5262 77.5313 11.5262C79.3409 11.5262 80.7048 11.9177 81.6247 12.7006C82.6551 13.5857 83.1719 14.8513 83.1719 16.4989ZM81.4255 16.5445C81.4255 15.3449 81.1063 14.4253 80.4678 13.7838C79.8293 13.144 78.8968 12.8233 77.6688 12.8233C77.1473 12.8233 76.7031 12.8578 76.3349 12.9302V20.6163C76.5388 20.6477 76.9118 20.6619 77.4539 20.6619C78.7214 20.6619 79.6997 20.3113 80.3888 19.6101C81.0778 18.909 81.4255 17.8871 81.4255 16.5445Z" fill="white"/>
<path d="M92.4319 18.115C92.4319 19.2548 92.1047 20.1886 91.4504 20.9213C90.7645 21.6743 89.8557 22.0501 88.721 22.0501C87.6273 22.0501 86.7565 21.69 86.1069 20.9669C85.4589 20.2452 85.1349 19.335 85.1349 18.2376C85.1349 17.09 85.4684 16.1483 86.1385 15.4172C86.8086 14.6862 87.7095 14.3199 88.8443 14.3199C89.9379 14.3199 90.8167 14.6799 91.482 15.4015C92.1142 16.1027 92.4319 17.0082 92.4319 18.115ZM90.7139 18.1685C90.7139 17.4846 90.5654 16.8982 90.2698 16.4092C89.9221 15.8181 89.4274 15.5226 88.7842 15.5226C88.1188 15.5226 87.6131 15.8181 87.2654 16.4092C86.9683 16.8982 86.8213 17.494 86.8213 18.1983C86.8213 18.8822 86.9698 19.4686 87.2654 19.9575C87.6242 20.5487 88.1236 20.8442 88.7684 20.8442C89.4006 20.8442 89.8968 20.544 90.254 19.9418C90.5606 19.4435 90.7139 18.8523 90.7139 18.1685Z" fill="white"/>
<path d="M104.848 14.4707L102.517 21.8818H101L100.034 18.6636C99.789 17.8602 99.5898 17.0616 99.4349 16.2693H99.4049C99.2611 17.0836 99.0619 17.8807 98.8059 18.6636L97.7802 21.8818H96.2456L94.0535 14.4707H95.7556L96.598 17.9939C96.8019 18.8271 96.9694 19.621 97.1038 20.3725H97.1338C97.2571 19.7531 97.4609 18.9639 97.7486 18.0096L98.8059 14.4723H100.156L101.169 17.9341C101.414 18.7784 101.613 19.5912 101.766 20.3741H101.812C101.924 19.6116 102.093 18.7988 102.318 17.9341L103.222 14.4723H104.848V14.4707Z" fill="white"/>
<path d="M113.434 21.8818H111.778V17.637C111.778 16.329 111.279 15.675 110.277 15.675C109.785 15.675 109.388 15.8542 109.08 16.2142C108.775 16.5742 108.62 16.9987 108.62 17.4845V21.8802H106.964V16.5884C106.964 15.9375 106.943 15.2316 106.904 14.4676H108.36L108.437 15.6263H108.483C108.676 15.2662 108.963 14.9691 109.341 14.7317C109.79 14.455 110.292 14.3151 110.842 14.3151C111.538 14.3151 112.116 14.5383 112.576 14.9864C113.148 15.5351 113.434 16.3541 113.434 17.4421V21.8818Z" fill="white"/>
<path d="M118.002 21.8818H116.347V11.0703H118.002V21.8818Z" fill="white"/>
<path d="M127.753 18.115C127.753 19.2548 127.426 20.1886 126.772 20.9213C126.086 21.6743 125.176 22.0501 124.042 22.0501C122.947 22.0501 122.076 21.69 121.428 20.9669C120.78 20.2452 120.456 19.335 120.456 18.2376C120.456 17.09 120.79 16.1483 121.46 15.4172C122.13 14.6862 123.031 14.3199 124.164 14.3199C125.259 14.3199 126.137 14.6799 126.803 15.4015C127.436 16.1027 127.753 17.0082 127.753 18.115ZM126.034 18.1685C126.034 17.4846 125.885 16.8982 125.59 16.4092C125.244 15.8181 124.747 15.5226 124.106 15.5226C123.439 15.5226 122.933 15.8181 122.587 16.4092C122.29 16.8982 122.143 17.494 122.143 18.1983C122.143 18.8822 122.291 19.4686 122.587 19.9575C122.946 20.5487 123.445 20.8442 124.09 20.8442C124.722 20.8442 125.217 20.544 125.574 19.9418C125.882 19.4435 126.034 18.8523 126.034 18.1685Z" fill="white"/>
<path d="M135.769 21.8818H134.282L134.159 21.0282H134.113C133.604 21.7089 132.879 22.0501 131.937 22.0501C131.233 22.0501 130.664 21.8252 130.236 21.3788C129.847 20.9731 129.653 20.4685 129.653 19.8695C129.653 18.964 130.032 18.2738 130.795 17.7959C131.557 17.3179 132.629 17.0837 134.009 17.0947V16.9563C134.009 15.9801 133.493 15.4927 132.461 15.4927C131.726 15.4927 131.078 15.6766 130.519 16.0414L130.182 14.9597C130.875 14.5337 131.73 14.3199 132.738 14.3199C134.685 14.3199 135.662 15.3418 135.662 17.3855V20.1148C135.662 20.8552 135.698 21.4448 135.769 21.8818ZM134.05 19.335V18.192C132.223 18.1606 131.309 18.659 131.309 19.6856C131.309 20.0723 131.413 20.3616 131.627 20.555C131.84 20.7483 132.112 20.8442 132.436 20.8442C132.8 20.8442 133.139 20.7295 133.449 20.5015C133.76 20.272 133.952 19.9811 134.023 19.6243C134.04 19.5441 134.05 19.4466 134.05 19.335Z" fill="white"/>
<path d="M145.18 21.8818H143.711L143.633 20.6917H143.587C143.118 21.5973 142.318 22.05 141.194 22.05C140.297 22.05 139.549 21.6995 138.957 20.9983C138.364 20.2971 138.068 19.3869 138.068 18.2691C138.068 17.0695 138.389 16.098 139.034 15.3559C139.658 14.6642 140.423 14.3183 141.334 14.3183C142.334 14.3183 143.034 14.6532 143.432 15.3245H143.464V11.0703H145.122V19.8852C145.122 20.6068 145.141 21.2718 145.18 21.8818ZM143.464 18.7564V17.5207C143.464 17.3069 143.448 17.134 143.418 17.0019C143.325 16.6058 143.124 16.2725 142.819 16.0036C142.511 15.7348 142.14 15.5996 141.711 15.5996C141.093 15.5996 140.61 15.8433 140.254 16.3322C139.902 16.8211 139.723 17.4453 139.723 18.2078C139.723 18.9404 139.892 19.5346 140.232 19.9921C140.591 20.4795 141.074 20.7232 141.68 20.7232C142.223 20.7232 142.658 20.5204 142.988 20.1132C143.308 19.7374 143.464 19.2847 143.464 18.7564Z" fill="white"/>
<path d="M159.346 18.115C159.346 19.2548 159.019 20.1886 158.365 20.9213C157.679 21.6743 156.772 22.0501 155.636 22.0501C154.543 22.0501 153.673 21.69 153.021 20.9669C152.373 20.2452 152.049 19.335 152.049 18.2376C152.049 17.09 152.383 16.1483 153.053 15.4172C153.723 14.6862 154.624 14.3199 155.76 14.3199C156.852 14.3199 157.733 14.6799 158.397 15.4015C159.029 16.1027 159.346 17.0082 159.346 18.115ZM157.63 18.1685C157.63 17.4846 157.481 16.8982 157.186 16.4092C156.837 15.8181 156.344 15.5226 155.699 15.5226C155.035 15.5226 154.529 15.8181 154.18 16.4092C153.883 16.8982 153.736 17.494 153.736 18.1983C153.736 18.8822 153.884 19.4686 154.18 19.9575C154.539 20.5487 155.038 20.8442 155.683 20.8442C156.315 20.8442 156.813 20.544 157.17 19.9418C157.475 19.4435 157.63 18.8523 157.63 18.1685Z" fill="white"/>
<path d="M168.252 21.8818H166.597V17.637C166.597 16.329 166.098 15.675 165.094 15.675C164.603 15.675 164.206 15.8542 163.899 16.2142C163.593 16.5742 163.439 16.9987 163.439 17.4845V21.8802H161.782V16.5884C161.782 15.9375 161.763 15.2316 161.723 14.4676H163.177L163.255 15.6263H163.3C163.495 15.2662 163.782 14.9691 164.159 14.7317C164.609 14.455 165.11 14.3151 165.662 14.3151C166.355 14.3151 166.934 14.5383 167.394 14.9864C167.967 15.5351 168.252 16.3541 168.252 17.4421V21.8818Z" fill="white"/>
<path d="M179.399 15.7049H177.575V19.3051C177.575 20.2201 177.899 20.6776 178.541 20.6776C178.838 20.6776 179.084 20.6524 179.279 20.6005L179.321 21.8504C178.994 21.973 178.564 22.0343 178.035 22.0343C177.381 22.0343 176.872 21.8362 176.503 21.4401C176.134 21.0439 175.95 20.3773 175.95 19.4419V15.7049H174.861V14.4708H175.95V13.1125L177.573 12.6251V14.4692H179.397V15.7049H179.399Z" fill="white"/>
<path d="M188.167 21.8818H186.51V17.6685C186.51 16.3401 186.01 15.6751 185.01 15.6751C184.242 15.6751 183.717 16.0602 183.429 16.8306C183.38 16.9925 183.352 17.1906 183.352 17.4233V21.8802H181.697V11.0703H183.352V15.5367H183.383C183.905 14.7239 184.653 14.3183 185.621 14.3183C186.307 14.3183 186.875 14.5415 187.325 14.9896C187.886 15.5477 188.167 16.3778 188.167 17.4751V21.8818Z" fill="white"/>
<path d="M197.212 17.8257C197.212 18.1213 197.19 18.3697 197.151 18.5725H192.184C192.206 19.3051 192.443 19.8632 192.903 20.25C193.323 20.5958 193.865 20.7688 194.529 20.7688C195.264 20.7688 195.934 20.6524 196.538 20.4182L196.797 21.5627C196.09 21.8677 195.259 22.0202 194.297 22.0202C193.143 22.0202 192.234 21.6822 191.577 21.0061C190.916 20.3301 190.589 19.423 190.589 18.2848C190.589 17.167 190.894 16.2363 191.509 15.4943C192.15 14.7019 193.018 14.3057 194.113 14.3057C195.185 14.3057 195.999 14.7019 196.549 15.4943C196.993 16.1231 197.212 16.9013 197.212 17.8257ZM195.632 17.3997C195.645 16.9107 195.536 16.4894 195.311 16.1341C195.024 15.6766 194.586 15.4471 193.993 15.4471C193.453 15.4471 193.012 15.6703 192.675 16.1184C192.4 16.4753 192.237 16.9013 192.184 17.3997H195.632Z" fill="white"/>
</g>
<defs>
<clipPath id="clip0">
<path d="M0 0H223.929V66H0V0Z" fill="white"/>
</clipPath>
</defs>
</svg>
