<svg width="60" height="60" viewBox="0 0 60 60" fill="none" xmlns="http://www.w3.org/2000/svg">
<path fill-rule="evenodd" clip-rule="evenodd" d="M21.9412 11.7598C21.8038 11.5298 21.7664 11.2563 21.8377 11C21.9089 10.7476 22.0801 10.5322 22.3135 10.3999L23.8137 9.56006V9V8.43994L22.3135 7.6001C22.0776 7.46533 21.9069 7.24609 21.8377 6.99023C21.7664 6.7334 21.8038 6.45996 21.9412 6.22998L24.0102 2.77002C24.294 2.29395 24.9224 2.12842 25.4169 2.3999L26.8964 3.24023C27.2237 3.0249 27.5697 2.8374 27.9309 2.68018V1C27.9309 0.447754 28.3941 0 28.9654 0H33.1033C33.6746 0 34.1378 0.447754 34.1378 1V2.68018C34.499 2.8374 34.845 3.0249 35.1723 3.24023L36.6518 2.41016C37.1463 2.13867 37.7747 2.30371 38.0585 2.77979L40.1275 6.24023C40.2649 6.47021 40.3023 6.74365 40.231 7C40.1649 7.24902 40.0017 7.46387 39.7759 7.6001L38.2757 8.43994V9V9.56006L39.786 10.3999C40.0219 10.5347 40.1932 10.7539 40.2619 11.0098C40.3331 11.2666 40.2962 11.54 40.1583 11.77L38.0893 15.23C37.955 15.46 37.7317 15.6289 37.4691 15.7002C37.2029 15.7637 36.9225 15.728 36.6826 15.6001L35.1723 14.7598C34.845 14.9751 34.499 15.1626 34.1378 15.3198V17C34.1378 17.5522 33.6746 18 33.1033 18H28.9654C28.3941 18 27.9309 17.5522 27.9309 17V15.3198C27.5697 15.1626 27.2237 14.9751 26.8964 14.7598L25.4169 15.5898C25.1775 15.7178 24.8967 15.7534 24.631 15.6899C24.3678 15.6187 24.145 15.4497 24.0102 15.2202L21.9412 11.7598ZM25.9756 8.08008C25.8518 8.68066 25.8518 9.29932 25.9756 9.8999L25.9549 9.91016C26.0539 10.3418 25.8478 10.7852 25.4482 11L24.2481 11.6299L25.2826 13.3701L26.4827 12.6899C26.8631 12.479 27.3399 12.5234 27.6723 12.7998C28.1562 13.1958 28.7098 13.5044 29.3068 13.71C29.7205 13.8496 29.9984 14.2266 29.9999 14.6499V16H32.0688V14.6899C32.0703 14.2666 32.3482 13.8896 32.7619 13.75C33.3589 13.5444 33.9125 13.2358 34.3964 12.8398C34.7288 12.563 35.2056 12.519 35.586 12.73L36.7861 13.4102L37.8206 11.6699L36.6205 11C36.2032 10.7808 35.9941 10.3145 36.1138 9.87012C36.2376 9.26904 36.2376 8.65088 36.1138 8.0498C36.0345 7.63135 36.2376 7.20996 36.6205 7L37.8206 6.37012L36.7861 4.62988L35.586 5.31006C35.2056 5.521 34.7288 5.47656 34.3964 5.2002C33.9125 4.8042 33.3589 4.49561 32.7619 4.29004C32.3482 4.15039 32.0703 3.77344 32.0688 3.3501V2H29.9999V3.3501C29.9812 3.75879 29.7064 4.11523 29.3068 4.25C28.7098 4.45557 28.1562 4.76416 27.6723 5.16016C27.3399 5.43701 26.8631 5.48096 26.4827 5.27002L25.2826 4.58984L24.2481 6.33008L25.4482 7C25.8513 7.20801 26.066 7.64697 25.9756 8.08008ZM25.6863 40H36.2069C36.7782 40 37.2414 40.4478 37.2414 41C37.2414 41.5522 36.7782 42 36.2069 42H25.8621V44H35.1724C35.7437 44 36.2069 44.4478 36.2069 45C36.2069 45.5522 35.7437 46 35.1724 46H32.5862L31.0345 48H35.1724C35.7437 48 36.2069 48.4478 36.2069 49C36.2069 49.5522 35.7437 50 35.1724 50H28.9655C28.5735 50 28.2154 49.7861 28.0401 49.4473C27.8649 49.1084 27.9028 48.7031 28.1381 48.3999L30 46H25.8621V52H27.931C28.5023 52 28.9655 52.4478 28.9655 53V54C28.9655 56.209 27.1127 58 24.8276 58H4.13793C1.85277 58 0 56.209 0 54V53C0 52.4478 0.463194 52 1.03448 52H3.10345V41C3.10345 39.3433 4.49303 38 6.2069 38H18.6207V27C18.6207 25.3433 20.0103 24 21.7241 24H48.6207C50.3346 24 51.7241 25.3433 51.7241 27V36.5801C51.7241 37.1323 51.2609 37.5801 50.6897 37.5801C50.1184 37.5801 49.6552 37.1323 49.6552 36.5801V27C49.6552 26.4478 49.192 26 48.6207 26H38.7002L47.0897 34.1099C47.4412 34.5068 47.4175 35.0981 47.0356 35.4678C46.6533 35.8369 46.0416 35.8599 45.6309 35.52L35.7826 26H21.7241C21.1529 26 20.6897 26.4478 20.6897 27V38H22.7586C24.0745 37.9995 25.2478 38.8008 25.6863 40ZM4.13793 56H24.8276C25.9702 56 26.8966 55.1045 26.8966 54H2.06897C2.06897 55.1045 2.99535 56 4.13793 56ZM5.17241 41V52H23.7931V41C23.7931 40.4478 23.3299 40 22.7586 40H16.976L21.4241 44.29C21.6201 44.4775 21.7302 44.7334 21.7302 45C21.7302 45.2666 21.6201 45.5225 21.4241 45.71C21.2301 45.8994 20.9655 46.0059 20.6897 46.0059C20.4139 46.0059 20.1492 45.8994 19.9552 45.71L14.0585 40H6.2069C5.63561 40 5.17241 40.4478 5.17241 41ZM32.0692 52H35.1726C35.7439 52 36.2071 52.4478 36.2071 53C36.2071 53.5522 35.7439 54 35.1726 54H32.0692C31.4979 54 31.0347 53.5522 31.0347 53C31.0347 52.4478 31.4979 52 32.0692 52ZM57.9311 47H51.7242V43C51.7242 41.3433 50.3346 40 48.6207 40H41.3793C39.6655 40 38.2759 41.3433 38.2759 43V55C38.2759 56.6567 39.6655 58 41.3793 58H48.6207C48.9728 58.0005 49.3228 57.9429 49.6552 57.8301V59C49.6552 59.5522 50.1184 60 50.6897 60C51.261 60 51.7242 59.5522 51.7242 59V49.4102L57.9311 55.4102V59C57.9311 59.5522 58.3942 60 58.9655 60C59.5368 60 60 59.5522 60 59V49C60 47.8955 59.0736 47 57.9311 47ZM49.6552 43V52H40.3448V43C40.3428 42.8355 40.3858 42.6733 40.4691 42.5298L45.8173 47.71C46.0113 47.8994 46.2759 48.0059 46.5517 48.0059C46.8275 48.0059 47.0922 47.8994 47.2862 47.71C47.4822 47.5225 47.5923 47.2666 47.5923 47C47.5923 46.7334 47.4822 46.4775 47.2862 46.29L42.8381 42H48.6207C49.192 42 49.6552 42.4478 49.6552 43ZM48.6207 56H41.3793C40.808 56 40.3448 55.5522 40.3448 55V54H49.6552V55C49.6552 55.5522 49.192 56 48.6207 56ZM54.2174 49H57.9311V52.5898L54.2174 49ZM31.0341 12C32.748 12 34.1376 10.6567 34.1376 9C34.1376 7.34326 32.748 6 31.0341 6C29.3202 6 27.9307 7.34326 27.9307 9C27.9307 10.6567 29.3202 12 31.0341 12ZM31.0341 8C31.6054 8 32.0686 8.44776 32.0686 9C32.0686 9.55225 31.6054 10 31.0341 10C30.4628 10 29.9996 9.55225 29.9996 9C29.9996 8.44776 30.4628 8 31.0341 8ZM11.938 20.8799C11.7425 21.0674 11.4783 21.1714 11.2036 21.1699C10.9283 21.1714 10.6641 21.0674 10.4691 20.8799C9.23965 19.7524 7.31212 19.7524 6.08266 20.8799C5.67705 21.272 5.01939 21.272 4.61378 20.8799C4.20817 20.4878 4.20817 19.852 4.61378 19.46C5.58411 18.5195 6.90196 17.9912 8.27589 17.9912C9.64981 17.9912 10.9677 18.5195 11.938 19.46C12.134 19.6479 12.2441 19.9033 12.2441 20.1699C12.2441 20.4365 12.134 20.6924 11.938 20.8799ZM3.15531 18.0498C5.98346 15.3159 10.5689 15.3159 13.3971 18.0498C13.8002 18.4375 14.4518 18.4375 14.8554 18.0498C15.2564 17.6602 15.2564 17.0303 14.8554 16.6401C11.2205 13.1304 5.33186 13.1304 1.69703 16.6401C1.34547 17.0366 1.36921 17.6284 1.75108 17.9976C2.13345 18.3667 2.74515 18.3897 3.15531 18.0498ZM8.27569 24C8.84698 24 9.31018 23.5522 9.31018 23C9.31018 22.4478 8.84698 22 8.27569 22C7.7044 22 7.24121 22.4478 7.24121 23C7.24121 23.5522 7.7044 24 8.27569 24ZM8.27569 33C8.84698 33 9.31018 32.5522 9.31018 32V27C9.31018 26.4478 8.84698 26 8.27569 26C7.7044 26 7.24121 26.4478 7.24121 27V32C7.24121 32.5522 7.7044 33 8.27569 33ZM51.7242 10H42.4139C41.8426 10 41.3794 9.55225 41.3794 9C41.3794 8.44776 41.8426 8 42.4139 8H51.7242C54.5807 8 56.8966 10.2388 56.8966 13V43C56.8966 43.5522 56.4334 44 55.8622 44C55.2909 44 54.8277 43.5522 54.8277 43V13C54.8277 11.3433 53.4381 10 51.7242 10ZM41.9482 15.8901L42.8797 16.3398C43.2307 16.5112 43.451 16.8599 43.4484 17.2402V21C43.4484 21.5522 43.9116 22 44.4829 22C45.0542 22 45.5174 21.5522 45.5174 21V17.2402C45.5199 16.1011 44.8547 15.0586 43.8 14.5498L42.8797 14.1099C42.5473 13.9165 42.1311 13.9194 41.8012 14.1167C41.4719 14.314 41.284 14.6733 41.3148 15.0469C41.3461 15.4204 41.5906 15.7461 41.9482 15.8901ZM9.31018 10C9.31018 10.5522 8.84698 11 8.27569 11C7.7044 11 7.24121 10.5522 7.24121 10V7C7.24121 5.34327 8.63079 4 10.3447 4H17.586C18.1573 4 18.6205 4.44776 18.6205 5C18.6205 5.55225 18.1573 6 17.586 6H10.3447C9.77337 6 9.31018 6.44776 9.31018 7V10Z" fill="url(#paint0_linear)"/>
<defs>
<linearGradient id="paint0_linear" x1="60" y1="26.1991" x2="-1.48678e-06" y2="26.1991" gradientUnits="userSpaceOnUse">
<stop stop-color="#CF4942"/>
<stop offset="1" stop-color="#DE2264"/>
</linearGradient>
</defs>
</svg>
