<svg width="20" height="20" viewBox="0 0 20 20" fill="none" xmlns="http://www.w3.org/2000/svg">
<path fill-rule="evenodd" clip-rule="evenodd" d="M12.3332 9.99886C12.3332 9.35476 12.1053 8.80485 11.6496 8.34912C11.1938 7.89339 10.6439 7.66553 9.99984 7.66553C9.35574 7.66553 8.80583 7.89339 8.3501 8.34912C7.89437 8.80485 7.6665 9.35476 7.6665 9.99886C7.6665 10.643 7.89437 11.1929 8.3501 11.6486C8.80583 12.1043 9.35574 12.3322 9.99984 12.3322C10.6439 12.3322 11.1938 12.1043 11.6496 11.6486C12.1053 11.1929 12.3332 10.643 12.3332 9.99886ZM13.591 10.0023C13.591 10.9988 13.2416 11.8465 12.5428 12.5452C11.844 13.244 10.9964 13.5934 9.99984 13.5934C9.0033 13.5934 8.15566 13.244 7.45687 12.5452C6.75808 11.8465 6.40869 10.9988 6.40869 10.0023C6.40869 9.00575 6.75808 8.1581 7.45687 7.45931C8.15566 6.76052 9.0033 6.41113 9.99984 6.41113C10.9964 6.41113 11.844 6.76052 12.5428 7.45931C13.2416 8.1581 13.591 9.00575 13.591 10.0023ZM14.5755 6.2653C14.5755 6.4962 14.4935 6.69368 14.3294 6.85775C14.1654 7.02181 13.9679 7.10384 13.737 7.10384C13.5061 7.10384 13.3086 7.02181 13.1445 6.85775C12.9805 6.69368 12.8984 6.4962 12.8984 6.2653C12.8984 6.0344 12.9805 5.83691 13.1445 5.67285C13.3086 5.50879 13.5061 5.42676 13.737 5.42676C13.9679 5.42676 14.1654 5.50879 14.3294 5.67285C14.4935 5.83691 14.5755 6.0344 14.5755 6.2653ZM10 4.25781C9.95746 4.25781 9.72505 4.25629 9.30273 4.25326C8.88042 4.25022 8.5599 4.25022 8.34115 4.25326C8.12239 4.25629 7.82921 4.26541 7.46159 4.2806C7.09397 4.29579 6.78103 4.32617 6.52279 4.37174C6.26454 4.41732 6.04731 4.47352 5.87109 4.54036C5.56727 4.66189 5.29991 4.83811 5.06901 5.06901C4.83811 5.29991 4.66189 5.56727 4.54036 5.87109C4.47352 6.04731 4.41732 6.26454 4.37174 6.52279C4.32617 6.78103 4.29579 7.09397 4.2806 7.46159C4.26541 7.82921 4.25629 8.12239 4.25326 8.34115C4.25022 8.5599 4.25022 8.88042 4.25326 9.30273C4.25629 9.72505 4.25781 9.95746 4.25781 10C4.25781 10.0425 4.25629 10.275 4.25326 10.6973C4.25022 11.1196 4.25022 11.4401 4.25326 11.6589C4.25629 11.8776 4.26541 12.1708 4.2806 12.5384C4.29579 12.906 4.32617 13.219 4.37174 13.4772C4.41732 13.7355 4.47352 13.9527 4.54036 14.1289C4.66189 14.4327 4.83811 14.7001 5.06901 14.931C5.29991 15.1619 5.56727 15.3381 5.87109 15.4596C6.04731 15.5265 6.26454 15.5827 6.52279 15.6283C6.78103 15.6738 7.09397 15.7042 7.46159 15.7194C7.82921 15.7346 8.12239 15.7437 8.34115 15.7467C8.5599 15.7498 8.88042 15.7498 9.30273 15.7467C9.72505 15.7437 9.95746 15.7422 10 15.7422C10.0425 15.7422 10.275 15.7437 10.6973 15.7467C11.1196 15.7498 11.4401 15.7498 11.6589 15.7467C11.8776 15.7437 12.1708 15.7346 12.5384 15.7194C12.906 15.7042 13.219 15.6738 13.4772 15.6283C13.7355 15.5827 13.9527 15.5265 14.1289 15.4596C14.4327 15.3381 14.7001 15.1619 14.931 14.931C15.1619 14.7001 15.3381 14.4327 15.4596 14.1289C15.5265 13.9527 15.5827 13.7355 15.6283 13.4772C15.6738 13.219 15.7042 12.906 15.7194 12.5384C15.7346 12.1708 15.7437 11.8776 15.7467 11.6589C15.7498 11.4401 15.7498 11.1196 15.7467 10.6973C15.7437 10.275 15.7422 10.0425 15.7422 10C15.7422 9.95746 15.7437 9.72505 15.7467 9.30273C15.7498 8.88042 15.7498 8.5599 15.7467 8.34115C15.7437 8.12239 15.7346 7.82921 15.7194 7.46159C15.7042 7.09397 15.6738 6.78103 15.6283 6.52279C15.5827 6.26454 15.5265 6.04731 15.4596 5.87109C15.3381 5.56727 15.1619 5.29991 14.931 5.06901C14.7001 4.83811 14.4327 4.66189 14.1289 4.54036C13.9527 4.47352 13.7355 4.41732 13.4772 4.37174C13.219 4.32617 12.906 4.29579 12.5384 4.2806C12.1708 4.26541 11.8776 4.25629 11.6589 4.25326C11.4401 4.25022 11.1196 4.25022 10.6973 4.25326C10.275 4.25629 10.0425 4.25781 10 4.25781ZM17 10C17 11.3915 16.9848 12.3546 16.9544 12.8893C16.8937 14.1532 16.5169 15.1315 15.8242 15.8242C15.1315 16.5169 14.1532 16.8937 12.8893 16.9544C12.3546 16.9848 11.3915 17 10 17C8.6085 17 7.6454 16.9848 7.11068 16.9544C5.84678 16.8937 4.86849 16.5169 4.17578 15.8242C3.48307 15.1315 3.10634 14.1532 3.04557 12.8893C3.01519 12.3546 3 11.3915 3 10C3 8.6085 3.01519 7.6454 3.04557 7.11068C3.10634 5.84678 3.48307 4.86849 4.17578 4.17578C4.86849 3.48307 5.84678 3.10634 7.11068 3.04557C7.6454 3.01519 8.6085 3 10 3C11.3915 3 12.3546 3.01519 12.8893 3.04557C14.1532 3.10634 15.1315 3.48307 15.8242 4.17578C16.5169 4.86849 16.8937 5.84678 16.9544 7.11068C16.9848 7.6454 17 8.6085 17 10Z" fill="#F3F6FC"/>
</svg>
