<?xml version="1.0" encoding="utf-8"?>
<!-- Generator: Adobe Illustrator 22.0.0, SVG Export Plug-In . SVG Version: 6.00 Build 0)  -->
<svg version="1.1" id="Слой_1" xmlns="http://www.w3.org/2000/svg" xmlns:xlink="http://www.w3.org/1999/xlink" x="0px" y="0px"
	 viewBox="0 0 20 20" style="enable-background:new 0 0 20 20;" xml:space="preserve">
<style type="text/css">
	.st0{fill:#F3F6FC;}
</style>
<g id="surface1">
	<path class="st0" d="M15.2,5.8c-1.2-1-3.2-1.2-3.3-1.2c-0.1,0-0.3,0.1-0.3,0.2c0,0-0.1,0.1-0.1,0.3c0.8,0.2,1.8,0.4,2.8,1
		c0.2,0.1,0.2,0.3,0.1,0.4c-0.1,0.1-0.2,0.2-0.3,0.2c-0.1,0-0.1,0-0.2-0.1c-1.6-1-3.6-1-4-1c-0.4,0-2.3,0.1-4,1
		C5.9,6.7,5.6,6.7,5.6,6.5C5.5,6.4,5.5,6.2,5.7,6.1c0.9-0.6,1.9-0.9,2.8-1C8.4,4.9,8.4,4.8,8.4,4.8C8.3,4.7,8.1,4.6,8,4.6
		S6,4.8,4.7,5.8c-0.7,0.6-2,4.2-2,7.3c0,0.1,0,0.1,0.1,0.2c0.9,1.6,3.4,2,4,2.1l0,0c0.1,0,0.2-0.1,0.3-0.1l0.6-0.8
		C6,14,5.3,13.3,5.2,13.3c-0.1-0.1-0.2-0.3,0-0.4c0.1-0.1,0.3-0.2,0.4-0.1c0,0,1.5,1.2,4.3,1.2s4.3-1.2,4.3-1.2
		c0.1-0.1,0.3-0.1,0.4,0.1c0.1,0.1,0.1,0.3-0.1,0.4c-0.1,0.1-0.8,0.7-2.4,1.1l0.6,0.8c0.1,0.1,0.2,0.1,0.3,0.1l0,0
		c0.5,0,3-0.4,4-2.1c0-0.1,0.1-0.1,0.1-0.2C17.2,10,15.8,6.5,15.2,5.8z M7.9,11.9c-0.6,0-1.1-0.5-1.1-1.2c0-0.7,0.5-1.2,1.1-1.2
		S9,9.9,9,10.6S8.5,11.9,7.9,11.9z M12,11.9c-0.6,0-1.1-0.5-1.1-1.2c0-0.7,0.5-1.2,1.1-1.2c0.6,0,1.1,0.5,1.1,1.2S12.6,11.9,12,11.9
		z"/>
</g>
</svg>
