<?xml version="1.0" encoding="utf-8"?>
<!-- Generator: Adobe Illustrator 21.0.2, SVG Export Plug-In . SVG Version: 6.00 Build 0)  -->
<svg version="1.1" id="Слой_1" xmlns="http://www.w3.org/2000/svg" xmlns:xlink="http://www.w3.org/1999/xlink" x="0px" y="0px"
	 viewBox="0 0 134.2 27.2" style="enable-background:new 0 0 134.2 27.2;" xml:space="preserve">
<style type="text/css">
	.st0{fill:#F3F6FC;}
	.st1{fill:url(#SVGID_1_);}
</style>
<path class="st0" d="M40.9,20.8h-9.3V4.5h3.3v13.4h6V20.8z M44.5,10.2c0.8-1.1,2.3-1.7,4.2-1.7c2,0,3.4,0.6,4.2,1.7
	c0.8,1.1,1.3,2.6,1.3,4.6c0,4.2-1.8,6.3-5.5,6.3c-3.7,0-5.5-2.1-5.5-6.3C43.2,12.8,43.6,11.3,44.5,10.2z M47,17.5
	c0.3,0.6,0.9,0.9,1.8,0.9s1.4-0.3,1.8-0.9c0.3-0.6,0.5-1.5,0.5-2.7s-0.2-2.1-0.5-2.7c-0.3-0.6-0.9-0.8-1.8-0.8s-1.4,0.3-1.8,0.8
	c-0.3,0.6-0.5,1.5-0.5,2.7S46.6,16.9,47,17.5z M58.5,10.2c0.8-1.1,2.3-1.7,4.2-1.7c2,0,3.4,0.6,4.2,1.7c0.8,1.1,1.3,2.6,1.3,4.6
	c0,4.2-1.8,6.3-5.5,6.3c-3.7,0-5.5-2.1-5.5-6.3C57.2,12.8,57.6,11.3,58.5,10.2z M60.9,17.5c0.3,0.6,0.9,0.9,1.8,0.9s1.4-0.3,1.8-0.9
	c0.3-0.6,0.5-1.5,0.5-2.7s-0.2-2.1-0.5-2.7c-0.3-0.6-0.9-0.8-1.8-0.8s-1.4,0.3-1.8,0.8c-0.3,0.6-0.5,1.5-0.5,2.7
	S60.6,16.9,60.9,17.5z M78.4,11.6h-3v4.9c0,0.5,0,0.8,0,1c0,0.2,0.1,0.4,0.3,0.5c0.2,0.1,0.4,0.2,0.7,0.2l1.8,0l0.1,2.6
	c-1.1,0.2-1.9,0.4-2.4,0.4c-1.4,0-2.4-0.3-3-1c-0.5-0.7-0.8-1.9-0.8-3.6v-5h-1.4V8.8h1.4V5.5h3.2v3.3h3V11.6z M84.9,20.8h-3.2v-12
	h3.2v0.7c1.1-0.6,2-1,2.8-1c1.3,0,2.3,0.4,3,1.1c1.5-0.8,2.8-1.1,4-1.1c1.6,0,2.7,0.5,3.3,1.4c0.6,0.9,0.9,2.4,0.9,4.4v6.5h-3.2
	v-6.4c0-1-0.1-1.8-0.3-2.3c-0.2-0.5-0.7-0.7-1.3-0.7c-0.5,0-1.1,0.1-1.9,0.3l-0.4,0.1c0.1,1.2,0.1,2.1,0.1,2.7v6.2h-3.2v-6.2
	c0-1.2-0.1-2-0.3-2.5c-0.2-0.5-0.7-0.7-1.4-0.7c-0.6,0-1.2,0.1-1.8,0.3l-0.3,0.1V20.8z M112.3,12.6v5c0,0.4,0.1,0.7,0.2,0.8
	c0.1,0.1,0.3,0.2,0.6,0.3l-0.1,2.4c-0.8,0-1.5-0.1-2-0.2c-0.5-0.1-1-0.3-1.5-0.7c-1.2,0.6-2.3,0.8-3.5,0.8c-2.5,0-3.7-1.3-3.7-3.9
	c0-1.3,0.3-2.2,1-2.7c0.7-0.5,1.7-0.9,3.2-1l2.6-0.2v-0.7c0-0.5-0.1-0.8-0.3-1c-0.2-0.2-0.6-0.3-1.1-0.3l-4.5,0.2L103,9.2
	c1.7-0.5,3.3-0.7,4.9-0.7c1.6,0,2.7,0.3,3.3,1C111.9,10.1,112.3,11.2,112.3,12.6z M106.9,15.7c-0.9,0.1-1.3,0.6-1.3,1.4
	c0,0.9,0.4,1.3,1.2,1.3c0.6,0,1.3-0.1,2-0.3l0.4-0.1v-2.6L106.9,15.7z M116.5,20.8v-12h3.2v1.3c1.3-0.8,2.6-1.3,3.8-1.6v3.2
	c-1.3,0.3-2.4,0.6-3.3,0.8l-0.5,0.2v8H116.5z M133.3,11.6h-3v4.9c0,0.5,0,0.8,0,1c0,0.2,0.1,0.4,0.3,0.5c0.2,0.1,0.4,0.2,0.7,0.2
	l1.8,0l0.1,2.6c-1.1,0.2-1.9,0.4-2.4,0.4c-1.4,0-2.4-0.3-3-1c-0.5-0.7-0.8-1.9-0.8-3.6v-5h-1.4V8.8h1.4V5.5h3.2v3.3h3V11.6z"/>
<linearGradient id="SVGID_1_" gradientUnits="userSpaceOnUse" x1="19.8333" y1="12.2797" x2="0.8333" y2="12.2797" gradientTransform="matrix(1 0 0 -1 0 25.6667)">
	<stop  offset="0" style="stop-color:#CF4942"/>
	<stop  offset="1" style="stop-color:#DE2264"/>
</linearGradient>
<path class="st1" d="M10.3,6.5L0.8,0.8v6.6v7V21v0l9.5,5v-5.9l-4.1-2.4v-7.4l4.1,2.1l4.1-2.1v13.6l5.4-2.8V7.4V0.8L10.3,6.5z"/>
</svg>
