<svg width="16" height="13" viewBox="0 0 16 13" fill="none" xmlns="http://www.w3.org/2000/svg">
<path fill-rule="evenodd" clip-rule="evenodd" d="M16 1.54315C15.5465 2.20643 14.9983 2.77157 14.3553 3.23858C14.3621 3.33333 14.3655 3.47546 14.3655 3.66497C14.3655 4.54484 14.2369 5.42301 13.9797 6.29949C13.7225 7.17598 13.3316 8.01692 12.8071 8.82233C12.2826 9.62775 11.6582 10.3401 10.934 10.9594C10.2098 11.5787 9.33672 12.0728 8.31472 12.4416C7.29272 12.8105 6.19967 12.9949 5.03553 12.9949C3.20134 12.9949 1.52285 12.5042 0 11.5228C0.236888 11.5499 0.500845 11.5635 0.791878 11.5635C2.31473 11.5635 3.67174 11.0965 4.86294 10.1624C4.15228 10.1489 3.51608 9.93063 2.95431 9.50761C2.39255 9.0846 2.00677 8.54484 1.79695 7.88832C2.02031 7.92217 2.22673 7.93909 2.41624 7.93909C2.70728 7.93909 2.99492 7.90186 3.27919 7.82741C2.52115 7.67174 1.8934 7.29442 1.39594 6.69543C0.898475 6.09644 0.649746 5.40102 0.649746 4.60914V4.56853C1.10999 4.82572 1.60406 4.96447 2.13198 4.98477C1.68528 4.68697 1.32995 4.2978 1.06599 3.81726C0.802029 3.33671 0.670051 2.81557 0.670051 2.25381C0.670051 1.6582 0.81895 1.1066 1.11675 0.598985C1.93571 1.60745 2.93231 2.41455 4.1066 3.0203C5.28089 3.62606 6.53806 3.96277 7.87817 4.03046C7.82403 3.77326 7.79695 3.52284 7.79695 3.27919C7.79695 2.37225 8.11675 1.59899 8.75635 0.959391C9.39594 0.319794 10.1692 0 11.0761 0C12.0237 0 12.8223 0.345174 13.4721 1.03553C14.2098 0.8934 14.9036 0.629444 15.5533 0.243655C15.3029 1.022 14.8223 1.62436 14.1117 2.05076C14.7411 1.98308 15.3706 1.81388 16 1.54315Z" fill="#F3F6FC"/>
</svg>
