<svg width="60" height="54" viewBox="0 0 60 54" fill="none" xmlns="http://www.w3.org/2000/svg">
<path fill-rule="evenodd" clip-rule="evenodd" d="M57.3634 22.4508H56.485V19.7916V10.3382C56.485 7.24322 53.9878 4.7252 50.9186 4.7252H26.7805L10.4958 0.0335062C10.4934 0.0328563 10.491 0.032354 10.4887 0.0318518C10.4863 0.0313495 10.4839 0.0308472 10.4816 0.0301973L10.4751 0.0281578L10.4751 0.0281571C10.4725 0.0273096 10.47 0.0264639 10.4674 0.0258253C10.4617 0.0243984 10.4561 0.0234013 10.4505 0.0224071C10.4464 0.0216723 10.4422 0.0209391 10.4381 0.0200351L10.4324 0.0188364C10.4192 0.0160313 10.406 0.0132261 10.3928 0.0110544C10.3819 0.00927407 10.3712 0.00801384 10.3603 0.00674345L10.3519 0.00573691C10.3359 0.00384624 10.3201 0.00219189 10.3043 0.00124656C10.2935 0.000654336 10.2828 0.000474281 10.2721 0.000293301L10.2657 0.000182964C10.2493 -5.33701e-05 10.233 -0.000171506 10.2167 0.000537495C10.2076 0.000895755 10.1984 0.00166129 10.1893 0.00242253L10.1806 0.00313709C10.1639 0.00455509 10.1471 0.00609143 10.1306 0.00857294C10.1215 0.00990769 10.1125 0.0115501 10.1035 0.0131899L10.1035 0.0131915L10.0971 0.0143631C10.08 0.0174354 10.0631 0.020744 10.0463 0.0248798C10.0367 0.0272878 10.0272 0.03 10.0177 0.0327345L10.0177 0.032737L10.0154 0.0333879C9.9983 0.0383509 9.98143 0.0434321 9.96455 0.0493404C9.95506 0.0527673 9.94568 0.0564306 9.93619 0.0602119C9.9192 0.0668292 9.90232 0.0738009 9.8858 0.0814817C9.87941 0.0844873 9.87315 0.08768 9.86688 0.0908785L9.86687 0.0908828L9.85979 0.0944802C9.84326 0.10287 9.82697 0.111378 9.81104 0.12095C9.80443 0.124797 9.79804 0.128869 9.79158 0.132986L9.78654 0.136193C9.77084 0.146119 9.75537 0.156282 9.74037 0.167271C9.73442 0.171568 9.72861 0.176136 9.72278 0.180719L9.71717 0.185114C9.70275 0.19634 9.68846 0.207802 9.67475 0.219973C9.66894 0.225115 9.66334 0.230456 9.65774 0.235797L9.65213 0.241125C9.63924 0.253415 9.62647 0.265704 9.61428 0.278702C9.60843 0.284967 9.60285 0.29144 9.59723 0.297962L9.59723 0.29797L9.59213 0.303872C9.581 0.316752 9.56998 0.329751 9.55955 0.34334C9.55323 0.351606 9.54724 0.36004 9.54124 0.3685L9.54122 0.368524L9.53787 0.373236C9.52861 0.386352 9.51947 0.399587 9.51104 0.413176C9.5043 0.423919 9.49806 0.435069 9.49186 0.446153L9.49186 0.446161L9.49041 0.448745C9.48303 0.461861 9.47565 0.475096 9.46897 0.488685C9.46319 0.500336 9.45796 0.512263 9.45271 0.524222L9.45057 0.529098C9.44471 0.542451 9.43897 0.555804 9.43381 0.569511C9.42889 0.582654 9.42457 0.596091 9.4202 0.609644L9.41893 0.613587C9.4176 0.617744 9.41615 0.621789 9.41469 0.62583L9.41469 0.625837C9.4128 0.631098 9.41091 0.63635 9.40932 0.641829C9.40857 0.644402 9.40806 0.646942 9.40754 0.649466C9.40709 0.651694 9.40664 0.653911 9.40604 0.656127L9.40401 0.662706C9.40317 0.66526 9.40233 0.667808 9.4017 0.670426L8.3967 4.72497H5.56698C2.50382 4.72497 0.0110156 7.23282 0.000937498 10.3193C0.000882974 10.3223 0.000676236 10.3252 0.00047073 10.3281C0.000234551 10.3314 0 10.3347 0 10.338V41.0614C0 41.5506 0.394921 41.9477 0.878905 41.9477C1.36406 41.9477 1.75781 41.5506 1.75781 41.0614V14.4258C2.75437 15.3706 4.09429 15.9513 5.56698 15.9513H50.9186L50.9216 15.9512C53.0202 15.9528 54.7272 17.675 54.7272 19.7917V25.996H45.0578L45.0562 25.9961C45.0307 25.9961 45.0054 25.9976 44.9802 25.9999C44.9522 26.0023 44.9246 26.0063 44.8974 26.0114L44.8922 26.0122L44.8852 26.0133C44.8622 26.0179 44.8397 26.0241 44.8173 26.0305L44.8109 26.0321C44.8081 26.0328 44.8053 26.0335 44.8026 26.0344C44.7826 26.0405 44.7633 26.0478 44.744 26.0553L44.73 26.0603L44.7217 26.0635C44.7136 26.0669 44.7056 26.0706 44.6977 26.0744L44.6744 26.0859C44.6711 26.0875 44.6678 26.089 44.6645 26.0906C44.6574 26.0938 44.6504 26.0971 44.6436 26.1008C44.6346 26.1055 44.626 26.1108 44.6174 26.1161L44.6082 26.1218L44.5993 26.127L44.5993 26.1271C44.5892 26.1331 44.579 26.1391 44.5693 26.1457C44.5637 26.1493 44.5585 26.1534 44.5532 26.1574L44.5446 26.1639L44.54 26.1672C44.5265 26.177 44.513 26.1867 44.5002 26.1974C44.494 26.2026 44.4883 26.2084 44.4823 26.2137L44.48 26.2158C44.473 26.2219 44.4661 26.2279 44.4593 26.2341C44.4517 26.2409 44.4443 26.2479 44.4371 26.2552L44.4313 26.2612C44.4277 26.2652 44.4242 26.2692 44.4207 26.2732C44.418 26.2762 44.4154 26.2793 44.4127 26.2823C44.4101 26.2851 44.4075 26.2879 44.4049 26.2908C44.3998 26.2962 44.3947 26.3017 44.3898 26.3072C44.3861 26.3114 44.3824 26.3157 44.3788 26.3201C44.3607 26.3424 44.3437 26.3656 44.3277 26.3896L44.3268 26.3909L39.6395 33.481C39.6068 33.5304 39.5792 33.5827 39.5573 33.6372C39.5489 33.6575 39.5423 33.6782 39.5356 33.6988C39.5336 33.705 39.531 33.7111 39.5291 33.7173C39.5226 33.7392 39.5175 33.7613 39.5127 33.7833C39.5114 33.7891 39.5098 33.7947 39.5086 33.8005C39.5048 33.8204 39.5022 33.8403 39.4997 33.8603L39.4982 33.8708L39.4982 33.8709C39.4975 33.8759 39.4967 33.8809 39.4962 33.886C39.4946 33.9024 39.4942 33.9187 39.4936 33.9351C39.493 33.9476 39.492 33.9602 39.492 33.9728C39.492 33.9806 39.4924 33.9885 39.4929 33.9963L39.4935 34.0093C39.4941 34.0261 39.4946 34.043 39.4962 34.0598C39.497 34.0679 39.4986 34.0761 39.4996 34.0842C39.5022 34.1046 39.5048 34.1249 39.5088 34.1451C39.5094 34.1485 39.5103 34.1519 39.5112 34.1553L39.5127 34.1616C39.5175 34.1839 39.5227 34.2061 39.5293 34.2282C39.5311 34.2344 39.5337 34.2405 39.5357 34.2468C39.5424 34.2674 39.5491 34.2881 39.5574 34.3084C39.5794 34.3628 39.6071 34.4152 39.6399 34.4647L44.327 41.5538L44.3277 41.5547C44.3466 41.583 44.3672 41.6099 44.389 41.6358L44.3971 41.6451L44.4112 41.6603C44.426 41.6767 44.4415 41.6925 44.4576 41.7078C44.4671 41.7168 44.4764 41.7255 44.486 41.7339C44.5032 41.7487 44.5209 41.7625 44.539 41.776C44.5423 41.7783 44.5455 41.7808 44.5487 41.7833C44.5535 41.7871 44.5584 41.7908 44.5634 41.7943C44.5898 41.8124 44.6171 41.829 44.6453 41.8441C44.6525 41.8479 44.6598 41.8511 44.667 41.8547C44.6895 41.866 44.7125 41.8765 44.736 41.8859L44.7524 41.8921L44.7635 41.8961C44.7859 41.9042 44.8087 41.9113 44.8319 41.9175C44.8414 41.92 44.8507 41.9226 44.8603 41.925C44.8841 41.9305 44.9083 41.9348 44.9328 41.9383C44.9417 41.9396 44.9505 41.9414 44.9594 41.9425C44.9896 41.9459 45.0203 41.9478 45.0515 41.948L45.0551 41.9482L45.059 41.9485L45.0606 41.9484H54.7275V48.1531C54.7275 50.2709 53.0189 51.9937 50.9189 51.9937H5.56745C3.46745 51.9937 1.75886 50.2709 1.75886 48.1531C1.75886 48.1505 1.75868 48.148 1.7585 48.1455L1.75816 48.1394V44.6069C1.75816 44.1189 1.36441 43.7206 0.879256 43.7206C0.395273 43.7206 0.000351562 44.1189 0.000351562 44.6069V48.1531C0.000351562 48.1586 0.000732422 48.1641 0.00111269 48.1695L0.00175781 48.1804C0.0164062 51.2629 2.50722 53.7662 5.56745 53.7662H50.9189C53.9879 53.7662 56.4849 51.2487 56.4853 48.154V48.1535V41.9484H57.3638C58.8173 41.9484 60 40.7558 60 39.2901V25.1091C59.9996 23.6434 58.817 22.4508 57.3634 22.4508ZM10.8867 1.98952L26.3951 6.45777L26.3974 6.45836L36.7914 9.45294H9.03678L10.8867 1.98952ZM54.727 15.7037C53.7306 14.7591 52.3909 14.1786 50.9186 14.1786L50.914 14.1788H5.56698C3.46687 14.1788 1.75828 12.4559 1.75828 10.3382C1.75828 8.22058 3.46687 6.49771 5.56698 6.49771H7.95737L7.22495 9.45294H5.56722C5.08183 9.45294 4.68831 9.84975 4.68831 10.3392C4.68831 10.8286 5.08183 11.2254 5.56722 11.2254H7.90815L7.9119 11.2257L7.91459 11.2254H43.0639L43.0671 11.2257L43.07 11.2254H49.7456C50.231 11.2254 50.6246 10.8286 50.6246 10.3392C50.6246 9.84975 50.231 9.45294 49.7456 9.45294H43.1898L32.9326 6.49771H50.9185C53.0185 6.49771 54.727 8.22058 54.727 10.3382V15.7037ZM58.2418 39.2896C58.2418 39.778 57.8477 40.1754 57.3634 40.1754H45.5282L41.4268 33.9723L45.5282 27.7683H57.3634C57.3667 27.7683 57.37 27.7682 57.3733 27.7681C57.3767 27.7679 57.3801 27.7677 57.3834 27.7675L57.3854 27.7673C57.3902 27.767 57.395 27.7666 57.3998 27.7664C57.6947 27.7623 57.9778 27.7094 58.2418 27.6151V39.2896ZM57.3634 25.9949C57.3601 25.9949 57.3569 25.9951 57.3536 25.9954C57.3508 25.9956 57.3481 25.9958 57.3452 25.9958H56.485V24.2233H57.3634C57.8477 24.2233 58.2418 24.6207 58.2418 25.1091C58.2418 25.5975 57.8477 25.9949 57.3634 25.9949ZM48.5742 30.8562C46.7972 30.8562 45.3516 32.314 45.3516 34.1059C45.3516 35.8978 46.7972 37.3555 48.5742 37.3555C50.3512 37.3555 51.7969 35.8978 51.7969 34.1059C51.7969 32.314 50.3512 30.8562 48.5742 30.8562ZM48.5742 35.583C47.7664 35.583 47.1094 34.9204 47.1094 34.1059C47.1094 33.2914 47.7664 32.6287 48.5742 32.6287C49.382 32.6287 50.039 33.2914 50.039 34.1059C50.039 34.9204 49.382 35.583 48.5742 35.583ZM22.9045 28.6648C22.9045 31.1609 21.4279 32.8015 19.1779 32.8015C16.9396 32.8015 15.4396 31.1726 15.4396 28.6648C15.4396 26.1452 16.9396 24.5281 19.1779 24.5281C21.4162 24.5281 22.9045 26.1452 22.9045 28.6648ZM17.3146 28.6648C17.3146 30.2468 18.0646 31.196 19.1779 31.196C20.2912 31.196 21.0412 30.2468 21.0412 28.6648C21.0412 27.0827 20.3029 26.1452 19.1779 26.1452C18.0646 26.1452 17.3146 27.0827 17.3146 28.6648ZM31.5763 24.7507L19.9279 41.6609H17.7834L29.4552 24.7507H31.5763ZM33.9201 37.7351C33.9201 40.2312 32.4318 41.8718 30.1935 41.8718C27.9435 41.8718 26.4552 40.2429 26.4552 37.7351C26.4552 35.2156 27.9552 33.5984 30.1935 33.5984C32.4318 33.5984 33.9201 35.2156 33.9201 37.7351ZM28.3185 37.7351C28.3185 39.3171 29.0802 40.2663 30.1935 40.2663C31.3068 40.2663 32.0568 39.3171 32.0568 37.7351C32.0568 36.1531 31.3068 35.2156 30.1935 35.2156C29.0802 35.2156 28.3185 36.1531 28.3185 37.7351Z" fill="url(#paint0_linear)"/>
<defs>
<linearGradient id="paint0_linear" x1="60" y1="23.4771" x2="-1.48678e-06" y2="23.4771" gradientUnits="userSpaceOnUse">
<stop stop-color="#CF4942"/>
<stop offset="1" stop-color="#DE2264"/>
</linearGradient>
</defs>
</svg>
