<svg width="60" height="60" viewBox="0 0 60 60" fill="none" xmlns="http://www.w3.org/2000/svg">
<path fill-rule="evenodd" clip-rule="evenodd" d="M53.7442 26.3658C56.3869 28.0042 57.9959 30.8908 58 33.9999C57.9982 34.6271 57.9314 35.2528 57.8 35.8658C59.0538 39.7989 59.7935 43.8776 60 48.0002C60 57.4429 59.2529 60 54.0001 60C47.3451 60 45.8578 55.5899 44.6631 52.0468C44.0689 50.2858 43.542 48.7349 42.529 47.8409C40.0484 49.6651 36.5868 49.3007 34.5401 47H25.4599C23.4132 49.3007 19.9516 49.6651 17.471 47.8409C16.458 48.7349 15.9311 50.2858 15.3369 52.0468C14.1422 55.5899 12.6549 60 5.99991 60C0.74707 60 0 57.4429 0 48.0002C0.205536 43.8776 0.943909 39.7989 2.19681 35.8658C1.40717 32.1597 3.03177 28.3571 6.2558 26.3658C8.07999 23.476 10.0108 22.0001 11.9998 22.0001C13.3099 21.9713 14.6082 22.2546 15.7869 22.8259C17.0668 23.3762 18.5202 24.0001 22.9999 24.0001H28.9998V19.4998C29.0034 16.4639 31.4639 14.0034 34.4998 13.9998H35.5C37.4332 13.9998 39.0001 12.4329 39.0001 10.5002C39.0001 8.56705 37.4332 7.00012 35.5 7.00012H34.4998C31.4639 6.99692 29.0034 4.53598 28.9998 1.50009V1.00021C28.9998 0.447693 29.4479 0 30 0C30.5521 0 31.0002 0.447693 31.0002 1.00021V1.50009C31.0002 3.43277 32.5671 5.00015 34.4998 5.00015H35.5C38.5378 5.00015 41.0001 7.46246 41.0001 10.5002C41.0001 13.5374 38.5378 16.0002 35.5 16.0002H34.4998C32.5671 16.0002 31.0002 17.5671 31.0002 19.4998V24.0001H37.0001C41.4798 24.0001 42.9332 23.3762 44.2131 22.8259C45.3918 22.2546 46.6901 21.9713 48.0002 22.0001C49.9892 22.0001 51.92 23.476 53.7442 26.3658ZM54.256 38.6078C54.4675 38.3698 54.6625 38.1171 54.8392 37.852L54.8507 37.8338C54.8593 37.8198 54.8677 37.8056 54.8761 37.7913L54.8762 37.7911L54.8766 37.7903L54.8767 37.7903L54.8767 37.7903L54.8929 37.7627C54.8986 37.7533 54.9043 37.744 54.9101 37.7348C55.0621 37.4876 55.199 37.2318 55.3198 36.9681C55.2141 36.9841 55.107 36.9951 54.9998 37.0001C53.8893 37.0033 52.868 36.3918 52.3471 35.4108C51.8262 34.4298 51.8912 33.241 52.516 32.3227C53.1413 31.4049 54.2235 30.9082 55.3271 31.0332C54.7192 29.7432 53.7341 28.6684 52.5018 27.951C52.3504 27.863 52.1921 27.7888 52.0344 27.7149L52.0344 27.7149L52.0343 27.7149L51.964 27.6819C52.1342 28.8474 51.6069 30.0046 50.6158 30.6409C49.6243 31.2767 48.3527 31.274 47.3643 30.6335C46.376 29.9931 45.8537 28.8336 46.0291 27.6691C44.5514 28.3658 43.3617 29.5551 42.6649 31.0332C43.8304 30.8588 44.9904 31.3829 45.6294 32.3735C46.2685 33.3636 46.2685 34.6362 45.6294 35.6268C44.9904 36.617 43.8304 37.1411 42.6649 36.9672C43.3617 38.4448 44.5514 39.6341 46.0291 40.3308C45.8537 39.1663 46.376 38.0067 47.3643 37.3663C48.3527 36.7259 49.6243 36.7232 50.6158 37.3595C51.6069 37.9953 52.1342 39.1525 51.964 40.318C52.0042 40.2997 52.0452 40.2826 52.0863 40.2655L52.0865 40.2654L52.0867 40.2654L52.0868 40.2653C52.16 40.2347 52.2335 40.2041 52.3032 40.1669C52.3461 40.1442 52.3867 40.1197 52.4269 40.0954L52.4272 40.0953L52.4272 40.0952C52.4525 40.08 52.4776 40.0648 52.5032 40.0502C52.7303 39.917 52.9504 39.7714 53.1619 39.614C53.1885 39.5941 53.2152 39.5746 53.2419 39.5551C53.2958 39.5158 53.3494 39.4766 53.4009 39.435C53.632 39.2464 53.8509 39.0427 54.0559 38.8261C54.126 38.7552 54.191 38.6819 54.256 38.6078ZM48.9999 39.0001C48.4479 39.0001 48.0002 39.4478 48.0002 39.9998C48.0002 40.5524 48.4479 41.0001 48.9999 41.0001C49.5525 41.0001 50.0002 40.5524 50.0002 39.9998C50.0002 39.4478 49.5525 39.0001 48.9999 39.0001ZM43.9998 33.9999C43.9998 33.4479 43.5521 33.0002 43 33.0002C42.4475 33.0002 41.9998 33.4479 41.9998 33.9999C41.9998 34.5525 42.4475 35.0002 43 35.0002C43.5521 35.0002 43.9998 34.5525 43.9998 33.9999ZM48.9999 28.9998C49.5525 28.9998 50.0002 28.5521 50.0002 28C50.0002 27.4475 49.5525 26.9998 48.9999 26.9998C48.4479 26.9998 48.0002 27.4475 48.0002 28C48.0002 28.5521 48.4479 28.9998 48.9999 28.9998ZM54.9998 35.0002C55.5524 35.0002 56.0001 34.5525 56.0001 33.9999C56.0001 33.4479 55.5524 33.0002 54.9998 33.0002C54.4478 33.0002 54.0001 33.4479 54.0001 33.9999C54.0001 34.5525 54.4478 35.0002 54.9998 35.0002ZM35.9999 32V26.0001H24.0001V32C24.0001 32.5525 24.4478 33.0002 24.9998 33.0002H35.0002C35.5522 33.0002 35.9999 32.5525 35.9999 32ZM9.12689 27.2621C8.5556 27.4214 8.00674 27.653 7.49405 27.951C5.64468 29.024 4.38721 30.8839 4.08005 33.0002H7.00012C7.55219 33.0002 7.99988 33.4479 7.99988 33.9999C7.99988 34.5525 7.55219 35.0002 7.00012 35.0002H4.07822C4.1098 35.2208 4.151 35.4378 4.20319 35.652C4.38309 36.3899 4.68201 37.093 5.08804 37.7348C5.09808 37.7509 5.1078 37.7675 5.11757 37.7841C5.13096 37.807 5.14444 37.8301 5.159 37.852C5.33569 38.1171 5.5307 38.3698 5.74219 38.6078L5.77682 38.6463L5.77693 38.6464C5.83173 38.7074 5.88581 38.7675 5.94177 38.8261C6.14731 39.0427 6.36566 39.2464 6.59683 39.435C6.64669 39.4751 6.69844 39.5129 6.75026 39.5508L6.7506 39.5511L6.75085 39.5512C6.77925 39.572 6.80766 39.5928 6.83578 39.614C7.04773 39.7714 7.26746 39.917 7.49496 40.0502C7.5268 40.0679 7.55763 40.0865 7.5884 40.1049C7.62356 40.1261 7.65863 40.1472 7.69501 40.1669C7.96967 40.312 8.25348 40.4388 8.54507 40.546C8.62381 40.5762 8.70209 40.6059 8.78082 40.6329C9.0921 40.7368 9.40979 40.8192 9.73206 40.8792C9.7706 40.8863 9.80979 40.8919 9.84953 40.8976C9.8768 40.9015 9.90434 40.9054 9.9321 40.9099C9.95407 40.9149 9.97787 40.9149 9.99985 40.9149V37.9999C9.99985 37.4478 10.4475 37.0001 11.0001 37.0001C11.5521 37.0001 11.9998 37.4478 11.9998 37.9999V40.92C15.0659 40.4741 17.4742 38.0658 17.9201 35.0002H15C14.4479 35.0002 13.9998 34.5525 13.9998 33.9999C13.9998 33.4479 14.4479 33.0002 15 33.0002H17.9201C17.4742 29.9341 15.0659 27.5258 11.9998 27.0799V31.0002C11.9998 31.5523 11.5521 32 11.0001 32C10.4475 32 9.99985 31.5523 9.99985 31.0002V27.0799L9.96002 27.0859C9.72427 27.1211 9.49081 27.1687 9.2601 27.2278L9.12689 27.2621ZM5.99991 58C11.2189 58 12.3001 54.7998 13.4409 51.4078C14.0639 49.5612 14.7052 47.6619 16.073 46.3971L16.0661 46.3852C15.9155 46.165 15.78 45.9352 15.6601 45.6972C15.6361 45.6495 15.6135 45.6024 15.5908 45.555L15.5731 45.5182C15.4683 45.2966 15.3777 45.0687 15.3012 44.8361C15.2972 44.8232 15.2923 44.8107 15.2874 44.7983L15.2874 44.7982C15.2834 44.7882 15.2795 44.7781 15.276 44.7679C15.2014 44.5184 15.1424 44.2639 15.0998 44.0071C15.0879 43.938 15.0769 43.868 15.0682 43.7979C14.9835 43.2399 14.9867 42.6718 15.0778 42.1152C15.0829 42.0982 15.0833 42.0794 15.0837 42.0602C15.084 42.0452 15.0844 42.0298 15.087 42.0149C15.0489 42.0346 15.0093 42.0509 14.9697 42.0672L14.9697 42.0672L14.9696 42.0672L14.9696 42.0672L14.9696 42.0672C14.9364 42.0809 14.9032 42.0945 14.8709 42.1101C14.6819 42.1999 14.496 42.2859 14.296 42.3628C14.1811 42.4081 14.0639 42.4498 13.9462 42.491C13.7558 42.5578 13.5562 42.6178 13.3562 42.6718C13.2372 42.7048 13.119 42.7368 12.9968 42.7652C12.7798 42.8142 12.5592 42.8508 12.3372 42.8851C12.2889 42.8917 12.241 42.8996 12.1931 42.9076L12.193 42.9076L12.1929 42.9076L12.1927 42.9076C12.1345 42.9172 12.0762 42.9268 12.0172 42.9341C11.3315 43.0161 10.6389 43.0138 9.95407 42.9268C9.87455 42.9174 9.79717 42.9046 9.71944 42.8917C9.68352 42.8857 9.64752 42.8798 9.61121 42.8741C9.38278 42.8389 9.1571 42.7959 8.93509 42.7441C8.79684 42.7139 8.66592 42.681 8.535 42.6439C8.33588 42.5871 8.14087 42.5212 7.94815 42.4512L7.93036 42.4451C7.80126 42.4009 7.67236 42.3568 7.54807 42.3051C7.3288 42.2182 7.12784 42.1179 6.9072 42.0049C6.6861 41.8918 6.47186 41.7682 6.26221 41.6368C6.23396 41.6192 6.20566 41.6019 6.17739 41.5845C6.08336 41.5267 5.98965 41.4691 5.8992 41.4061C5.73807 41.2971 5.58884 41.1809 5.43777 41.0619C5.32883 40.979 5.22903 40.8929 5.12878 40.806C4.98413 40.681 4.84222 40.5551 4.7049 40.421C4.59919 40.3197 4.50307 40.2125 4.40778 40.1062L4.40773 40.1062L4.40769 40.1061L4.40766 40.1061L4.39407 40.0909C4.24484 39.9289 4.0979 39.765 3.96103 39.5911C3.79486 39.386 3.64105 39.175 3.49503 38.9561C3.48566 38.9414 3.47522 38.928 3.46479 38.9146L3.46476 38.9146L3.46475 38.9146C3.45378 38.9005 3.44284 38.8865 3.43323 38.871C2.61108 41.8497 2.12997 44.9126 1.99997 48.0002C1.99997 58 3.00797 58 5.99991 58ZM17.1538 44.3564C17.748 45.9622 19.2879 47.0206 20.9999 47C22.2523 46.9968 23.4302 46.4049 24.18 45.4019V45.3941C24.2972 45.2367 24.4034 45.0714 24.4972 44.8988C24.5017 44.8904 24.5063 44.8821 24.5109 44.8737C24.5145 44.8672 24.5182 44.8606 24.5218 44.8541L24.5219 44.8539C24.5339 44.8324 24.5459 44.8108 24.5572 44.789C24.6295 44.6457 24.6936 44.4978 24.749 44.3468C24.7852 44.247 24.8108 44.1582 24.8428 44.0469L24.8439 44.0432L24.8439 44.0432C24.8756 43.9337 24.9072 43.8246 24.928 43.7132C25.2502 42.0314 24.4798 40.329 23.004 39.4611C21.5282 38.5931 19.666 38.7474 18.3527 39.846C17.0398 40.9447 16.5596 42.7505 17.1538 44.3564ZM26.9009 44.0579C26.8433 44.3784 26.7595 44.6933 26.6501 45H33.3499C33.2405 44.6933 33.1567 44.3784 33.0991 44.0579C33.096 44.0395 33.0932 44.0207 33.0903 44.0019C33.0877 43.9842 33.085 43.9665 33.0821 43.949C32.791 42.2127 33.2817 40.437 34.4229 39.0967C35.5646 37.7563 37.2395 36.9891 39.0001 37.0001C39.2436 37.002 39.4872 37.018 39.7289 37.0491C39.7766 37.0548 39.8228 37.0626 39.869 37.0703C39.8928 37.0743 39.9167 37.0783 39.9408 37.0821C40.1175 37.11 40.2914 37.1457 40.4631 37.1892C40.4803 37.1932 40.4981 37.1963 40.516 37.1994L40.516 37.1994C40.5405 37.2037 40.5652 37.2079 40.589 37.2148C40.5727 37.1666 40.5581 37.1189 40.5433 37.0705L40.5433 37.0704C40.5265 37.0154 40.5094 36.9594 40.4892 36.9008L40.4682 36.8403C40.437 36.7508 40.4058 36.6614 40.3789 36.5698C40.3296 36.4062 40.2902 36.2394 40.2504 36.0713L40.2504 36.0713L40.2504 36.0712L40.2503 36.0712L40.2503 36.0711L40.2489 36.0649C40.2412 36.0327 40.2332 36.0006 40.2252 35.9686L40.2251 35.9679C40.2062 35.8919 40.1874 35.8161 40.172 35.739C40.1349 35.5499 40.1088 35.3581 40.0841 35.1649C40.0794 35.1279 40.0738 35.0917 40.0681 35.0554L40.0681 35.055C40.0593 34.9985 40.0505 34.9418 40.0452 34.8811C40.0159 34.5909 39.9998 34.2998 39.9998 33.9999C39.9852 31.4159 41.0884 28.9513 43.0252 27.2406C44.9625 25.5304 47.5443 24.7408 50.1068 25.0749C50.1379 25.0818 50.1691 25.0818 50.2002 25.0818C49.6289 24.4574 48.8434 24.071 48.0002 24.0001C46.9606 23.9722 45.9306 24.2001 45 24.6638C43.716 25.2168 42.133 25.8929 37.9999 25.9882V32C37.9999 33.6571 36.6568 35.0002 35.0002 35.0002H24.9998C23.3432 35.0002 22.0001 33.6571 22.0001 32V25.9882C17.8702 25.8929 16.2868 25.2168 15 24.6638C14.0694 24.2001 13.0394 23.9722 11.9998 24.0001C11.1571 24.071 10.372 24.4574 9.80118 25.0818C9.83185 25.0749 9.86298 25.0749 9.8941 25.0749C12.4557 24.7421 15.0362 25.5327 16.9725 27.2429C18.9084 28.9531 20.0107 31.4168 19.996 33.9999C19.996 34.297 19.98 34.5909 19.9512 34.8811C19.9456 34.9398 19.9367 34.9976 19.9278 35.0554C19.9222 35.0919 19.9166 35.1283 19.9118 35.1649C19.8871 35.3581 19.861 35.5499 19.8239 35.739C19.8085 35.8161 19.7897 35.8919 19.7708 35.9679L19.7708 35.9679L19.7551 36.0314L19.747 36.0649C19.7072 36.2352 19.6669 36.4041 19.617 36.5698C19.6001 36.6273 19.5797 36.6855 19.5598 36.7425C19.5408 36.7968 19.5221 36.8501 19.5071 36.9008L19.4905 36.9571L19.4905 36.9571L19.4904 36.9573L19.4904 36.9576C19.4648 37.0444 19.4388 37.133 19.4069 37.2148C19.4306 37.208 19.4553 37.2037 19.4798 37.1995L19.4798 37.1994L19.4798 37.1994L19.4799 37.1994C19.4978 37.1963 19.5156 37.1932 19.5328 37.1892C19.7044 37.1457 19.8784 37.11 20.0551 37.0821C20.0792 37.0783 20.1031 37.0743 20.127 37.0703C20.1734 37.0626 20.2196 37.0548 20.267 37.0491C22.1402 36.8069 24.0175 37.4661 25.3281 38.8261C26.6386 40.1862 27.2287 42.0859 26.9179 43.949C26.915 43.9665 26.9123 43.9842 26.9097 44.0019C26.9068 44.0207 26.904 44.0395 26.9009 44.0579ZM35.8241 45.3969V45.4051L35.8209 45.406C37.0605 47.038 39.326 47.482 41.0902 46.4392C42.8545 45.3964 43.5571 43.1973 42.7249 41.3246C41.8927 39.4519 39.7893 38.4998 37.8328 39.1104C35.8768 39.7211 34.6884 41.7004 35.0688 43.7141C35.0867 43.8102 35.1155 43.9118 35.1408 44.0014L35.1409 44.0016L35.154 44.0479C35.1819 44.1481 35.2121 44.2479 35.2478 44.3481C35.3032 44.4987 35.3673 44.6466 35.4401 44.7899C35.4524 44.8143 35.4658 44.8384 35.4793 44.8626L35.4795 44.8629L35.5 44.9002C35.5962 45.0732 35.7042 45.2394 35.8241 45.3969ZM58 48.0002C57.87 44.9126 57.3889 41.8497 56.5668 38.871C56.5615 38.8791 56.5558 38.887 56.55 38.8951C56.5351 38.9158 56.5193 38.9378 56.5068 38.968C56.3608 39.1869 56.2051 39.4029 56.0408 39.603C55.9071 39.776 55.757 39.9399 55.6068 40.1028L55.5694 40.1438C55.4805 40.2414 55.3917 40.3388 55.2969 40.432C55.1601 40.5661 55.0182 40.692 54.873 40.817C54.7723 40.9048 54.6693 40.99 54.5641 41.0719C54.413 41.1909 54.2619 41.3081 54.1031 41.4171C54.0143 41.4787 53.9227 41.5351 53.831 41.5916C53.8007 41.6102 53.7703 41.6289 53.7401 41.6478C53.53 41.7792 53.3052 41.916 53.0951 42.0158C53.0388 42.0427 52.9824 42.0702 52.9258 42.0978L52.925 42.0982L52.9247 42.0983C52.7702 42.1735 52.6141 42.2496 52.4542 42.3161C52.3628 42.3535 52.2701 42.386 52.1778 42.4183L52.1776 42.4184L52.1775 42.4184L52.1768 42.4187C52.1358 42.4331 52.0949 42.4474 52.0541 42.4622C51.861 42.5322 51.6669 42.5981 51.4668 42.6549C51.3359 42.6901 51.205 42.7231 51.0718 42.7551C50.8502 42.8069 50.6241 42.8499 50.3961 42.8851L50.3399 42.8941L50.2886 42.9025C50.2105 42.9155 50.1326 42.9283 50.0528 42.9378C49.3684 43.0247 48.6754 43.0275 47.9901 42.9451C47.9279 42.9375 47.8667 42.9274 47.8055 42.9173L47.8053 42.9173C47.7603 42.9099 47.7153 42.9025 47.6701 42.8961C47.4481 42.8618 47.227 42.8252 47.01 42.7762C46.8878 42.7478 46.7702 42.7162 46.6512 42.6828C46.4511 42.6288 46.2552 42.5688 46.0611 42.502C45.943 42.4608 45.8258 42.4191 45.7109 42.3738C45.5159 42.2969 45.325 42.2108 45.136 42.1211C45.1036 42.1055 45.0705 42.0918 45.0373 42.0782C44.9977 42.0619 44.958 42.0456 44.9199 42.0259C44.9253 42.0431 44.9258 42.0625 44.9263 42.0827V42.0828C44.9266 42.097 44.927 42.1116 44.929 42.1262C45.0201 42.6833 45.0233 43.2509 44.9391 43.8089C44.93 43.8789 44.919 43.949 44.9071 44.0181C44.8645 44.2749 44.8055 44.5294 44.7308 44.7789C44.7231 44.8018 44.713 44.8242 44.7061 44.8471C44.6297 45.0797 44.5386 45.3076 44.4342 45.5292C44.4049 45.5891 44.377 45.6482 44.3468 45.7082C44.2273 45.9462 44.0913 46.176 43.9412 46.3962L43.9339 46.4081C45.2948 47.6619 45.9361 49.5612 46.5591 51.4078C47.6999 54.7998 48.7811 58 54.0001 58C56.992 58 58 58 58 48.0002ZM22.0003 43C22.0003 43.5521 21.5526 43.9998 21.0001 43.9998C20.448 43.9998 20.0003 43.5521 20.0003 43C20.0003 42.4475 20.448 41.9998 21.0001 41.9998C21.5526 41.9998 22.0003 42.4475 22.0003 43ZM39.9998 43C39.9998 43.5521 39.5521 43.9998 39.0001 43.9998C38.4476 43.9998 37.9999 43.5521 37.9999 43C37.9999 42.4475 38.4476 41.9998 39.0001 41.9998C39.5521 41.9998 39.9998 42.4475 39.9998 43ZM10.9999 20.0002C11.552 20.0002 11.9997 19.5525 11.9997 18.9999V17C11.9997 16.4479 11.552 16.0002 10.9999 16.0002C10.4474 16.0002 9.99973 16.4479 9.99973 17V18.9999C9.99973 19.5525 10.4474 20.0002 10.9999 20.0002ZM6.55282 21.8999L4.55285 20.9001C4.05846 20.6529 3.85796 20.0523 4.10515 19.558C4.35189 19.0636 4.95247 18.8631 5.44686 19.1098L7.44683 20.11C7.94121 20.3568 8.14171 20.9578 7.89498 21.4522C7.64825 21.9461 7.0472 22.1471 6.55282 21.8999ZM49 20.0002C49.5525 20.0002 50.0002 19.5525 50.0002 18.9999V17C50.0002 16.4479 49.5525 16.0002 49 16.0002C48.4479 16.0002 48.0002 16.4479 48.0002 17V18.9999C48.0002 19.5525 48.4479 20.0002 49 20.0002ZM53.4462 21.8948C53.3075 21.964 53.1546 22.0001 52.9999 22.0001C52.5357 22.001 52.1315 21.682 52.0249 21.2302C51.9182 20.7784 52.1366 20.3124 52.5522 20.105L54.5522 19.1052C55.0461 18.858 55.6472 19.0585 55.8939 19.5529C56.1411 20.0473 55.9401 20.6484 55.4462 20.8951L53.4462 21.8948Z" fill="url(#paint0_linear)"/>
<defs>
<linearGradient id="paint0_linear" x1="60" y1="26.1991" x2="-1.48678e-06" y2="26.1991" gradientUnits="userSpaceOnUse">
<stop stop-color="#CF4942"/>
<stop offset="1" stop-color="#DE2264"/>
</linearGradient>
</defs>
</svg>
