<?xml version="1.0" encoding="utf-8"?>
<!-- Generator: Adobe Illustrator 22.0.0, SVG Export Plug-In . SVG Version: 6.00 Build 0)  -->
<svg version="1.1" id="Слой_1" xmlns="http://www.w3.org/2000/svg" xmlns:xlink="http://www.w3.org/1999/xlink" x="0px" y="0px"
	 viewBox="0 0 60 54" style="enable-background:new 0 0 60 54;" xml:space="preserve">
<style type="text/css">
	.st0{fill:url(#SVGID_1_);}
	.st1{fill:#EF3A45;}
	.st2{fill:url(#SVGID_2_);}
	.st3{fill:url(#SVGID_3_);}
</style>
<g>
	<g>
		<linearGradient id="SVGID_1_" gradientUnits="userSpaceOnUse" x1="35.3052" y1="32.1981" x2="41.9341" y2="32.1981">
			<stop  offset="0" style="stop-color:#CF4942"/>
			<stop  offset="1" style="stop-color:#DE2264"/>
		</linearGradient>
		<path class="st0" d="M38.6,28.9c-1.8,0-3.3,1.5-3.3,3.3c0,1.8,1.5,3.3,3.3,3.3c1.8,0,3.3-1.5,3.3-3.3
			C41.9,30.4,40.4,28.9,38.6,28.9z"/>
		<path class="st1" d="M34.3,24L34.3,24L34.3,24z"/>
		<linearGradient id="SVGID_2_" gradientUnits="userSpaceOnUse" x1="18.3761" y1="26.0426" x2="37.2565" y2="26.0426">
			<stop  offset="0" style="stop-color:#CF4942"/>
			<stop  offset="1" style="stop-color:#DE2264"/>
		</linearGradient>
		<path class="st2" d="M37.2,24.7c-0.1-0.6-0.5-1.2-1-1.6c-1.1-0.8-2.7-0.5-3.6,0.6l-3.5,5l0,0c-0.3,0.4-0.8,0.5-1.2,0.2l0,0
			c-0.4-0.3-0.5-0.8-0.2-1.2l5-7.2c0.4-0.6,0.5-1.3,0.4-1.9c-0.1-0.6-0.5-1.2-1-1.6c-1.1-0.8-2.7-0.5-3.6,0.6l-9.7,13.9
			c-0.4,0.6-0.5,1.3-0.4,1.9c0.1,0.6,0.5,1.2,1,1.6c1.1,0.8,2.7,0.5,3.6-0.6l2.7-3.9c0.3-0.4,0.8-0.5,1.2-0.2l0,0
			c0.4,0.3,0.5,0.8,0.2,1.2l0,0l0,0c-0.4,0.6-0.5,1.3-0.4,1.9c0.1,0.6,0.5,1.2,1,1.6c1.1,0.8,2.7,0.5,3.6-0.6l3.5-5l1.9-2.8
			C37.2,26,37.3,25.4,37.2,24.7z"/>
	</g>
	<linearGradient id="SVGID_3_" gradientUnits="userSpaceOnUse" x1="56.8426" y1="27.0426" x2="3.4676" y2="27.0426">
		<stop  offset="0" style="stop-color:#CF4942"/>
		<stop  offset="1" style="stop-color:#DE2264"/>
	</linearGradient>
	<path class="st3" d="M30.2,0.4C15.4,0.4,3.5,12.3,3.5,27s11.9,26.7,26.7,26.7S56.8,41.8,56.8,27S44.9,0.4,30.2,0.4z M30.2,51.3
		C16.8,51.3,5.9,40.4,5.9,27S16.8,2.8,30.2,2.8S54.4,13.6,54.4,27S43.6,51.3,30.2,51.3z"/>
</g>
</svg>
